<svg width="348" height="345" viewBox="0 0 348 345" fill="none" xmlns="http://www.w3.org/2000/svg">
<mask id="mask0_10_826" style="mask-type:alpha" maskUnits="userSpaceOnUse" x="0" y="0" width="322" height="345">
<path d="M319.414 267.232C298.76 298.391 268.479 322.077 233.107 334.742C197.734 347.408 159.175 348.37 123.204 337.486C87.2338 326.601 55.7887 304.456 33.5795 274.367C11.3703 244.278 -0.407347 207.865 0.0107526 170.582C0.428852 133.3 13.0202 97.1556 35.8987 67.5634C58.7772 37.9712 90.7111 16.5242 126.917 6.43529C163.123 -3.65364 201.651 -1.84142 236.731 11.6005C271.81 25.0423 301.553 49.3903 321.502 80.9969L174 172.5L319.414 267.232Z" fill="#D9D9D9"/>
</mask>
<g mask="url(#mask0_10_826)">
<rect x="142" y="10" width="14" height="87" fill="#055970"/>
<rect x="168" y="8" width="13" height="85" fill="#055970"/>
<rect x="194" y="11" width="12" height="86" fill="#055970"/>
<rect x="222" y="41" width="13" height="56" fill="#055970"/>
<rect x="113" y="41" width="14" height="56" fill="#055970"/>
<rect x="254" y="67" width="13" height="42" fill="#055970"/>
<rect x="254" y="104" width="69" height="15" fill="#055970"/>
<rect x="82" y="67" width="13" height="42" fill="#055970"/>
<rect x="26" y="104" width="69" height="15" fill="#055970"/>
<rect x="142" y="247" width="14" height="87" fill="#055970"/>
<rect x="167" y="250" width="15" height="87" fill="#055970"/>
<rect x="193" y="247" width="14" height="87" fill="#055970"/>
<rect x="221" y="247" width="15" height="55" fill="#055970"/>
<rect x="113" y="247" width="14" height="55" fill="#055970"/>
<rect x="25" y="225" width="70" height="15" fill="#055970"/>
<rect x="81" y="225" width="14" height="51" fill="#055970"/>
<rect x="253" y="225" width="70" height="15" fill="#055970"/>
<rect x="253" y="227" width="14" height="51" fill="#055970"/>
<rect x="240" y="132" width="98" height="14" fill="#0F4D70"/>
<rect x="240" y="166" width="98" height="13" fill="#055970"/>
<rect x="239" y="198" width="99" height="14" fill="#0F4D70"/>
<rect x="11" y="132" width="98" height="14" fill="#055970"/>
<rect x="11" y="166" width="98" height="13" fill="#055970"/>
<rect x="11" y="198" width="98" height="14" fill="#055970"/>
<circle cx="119.5" cy="30.5" r="14.5" fill="#055970"/>
<circle cx="119.5" cy="313.5" r="14.5" fill="#055970"/>
<circle cx="228.5" cy="313.5" r="14.5" fill="#055970"/>
<circle cx="261.5" cy="288.5" r="14.5" fill="#055970"/>
<circle cx="294.5" cy="262.5" r="14.5" fill="#055970"/>
<circle cx="87.5" cy="288.5" r="14.5" fill="#055970"/>
<circle cx="88.5" cy="55.5" r="14.5" fill="#055970"/>
<circle cx="54.5" cy="81.5" r="14.5" fill="#055970"/>
<circle cx="228.5" cy="30.5" r="14.5" fill="#055970"/>
<circle cx="261.5" cy="55.5" r="14.5" fill="#055970"/>
<circle cx="294.5" cy="81.5" r="14.5" fill="#055970"/>
<circle cx="54.5" cy="262.5" r="14.5" fill="#055970"/>
<rect x="125" y="124" width="99" height="97" stroke="#0880A2" stroke-width="10"/>
<circle cx="174.5" cy="173.5" r="31.5" fill="#0C3A55"/>
</g>
</svg>
