<svg width="498" height="501" viewBox="0 0 498 501" fill="none" xmlns="http://www.w3.org/2000/svg">
<path fill-rule="evenodd" clip-rule="evenodd" d="M246.008 0.360901C244.728 0.550468 239.076 1.37971 233.447 2.20521C217.845 4.49215 197.713 11.2082 181.343 19.5865C163.963 28.4812 143.874 45.3797 131.082 61.8627C110.876 87.9006 99 123.055 99 156.831C99 176.687 104.105 203.629 109.582 212.676L111.561 215.944L111.855 213.376C112.363 208.944 114.53 210.548 118.163 218.045C125.575 233.342 133.564 244.329 147.594 258.52C159.282 270.342 167.06 276.428 180.878 284.566C196.622 293.838 197.404 294.117 199.27 291.117C199.91 290.09 200.992 289.25 201.675 289.25C202.358 289.25 208.11 290.946 214.46 293.019C232.928 299.05 250.719 301.704 253.561 298.852C254.959 297.448 255.221 297.533 241.355 294.881C229.686 292.65 214.572 287.854 205.069 283.368C199.371 280.679 190.276 275.493 189.252 274.349C188.996 274.065 186.483 272.113 183.669 270.013C176.676 264.794 166.696 254.383 162.242 247.66C160.214 244.598 158.552 241.748 158.55 241.328C158.546 240.005 162.521 241.757 168.782 245.837C181.288 253.987 202.441 265.206 210.059 267.729C212.019 268.378 214.733 269.492 216.092 270.202C217.449 270.914 219.035 271.497 219.617 271.501C220.198 271.504 223.757 272.529 227.526 273.78C231.294 275.03 240.234 276.978 247.392 278.109C271.911 281.982 295.151 278.415 309.277 268.611C313.098 265.959 315.865 263.204 320.737 257.204C323.943 253.255 324.097 252.83 322.322 252.83C321.241 252.83 316.738 254.761 312.315 257.122C295.693 265.994 283.923 268.362 260.894 267.463C245.073 266.847 233.278 264.475 220.501 259.34C190.932 247.456 167.115 222.051 158.62 193.331C155.615 183.17 154.581 171.882 155.048 154.312C155.421 140.263 155.76 137.547 157.99 130.699C161.693 119.33 165.955 112.552 174.597 104.283C179.399 99.6892 191.479 92.0711 197.302 89.9653C199.27 89.2528 202.138 87.9987 203.673 87.1788C205.208 86.3579 206.973 85.6846 207.596 85.6809C208.218 85.6781 210.102 85.0599 211.783 84.3082C222.28 79.6101 227.498 78.0581 228.891 79.2188C230.096 80.2227 229.495 80.9072 224.731 83.9477C215.572 89.7916 216.18 90.732 227.01 87.4748C236.287 84.6836 244.113 81.8812 247.966 79.9696C249.811 79.0535 255.045 77.3829 259.597 76.2558C266.986 74.4264 269.467 74.2639 282.76 74.7355C290.947 75.0269 298.867 75.7319 300.358 76.3034C301.849 76.874 304.78 79.1637 306.871 81.39C310.053 84.7788 311.431 85.5408 315.324 86.0666C324.796 87.345 335.447 92.8583 340.626 99.1625C342.082 100.936 345.129 106.026 347.397 110.475C352.359 120.206 355.795 123.661 363.177 126.344C366.245 127.459 369.814 129.067 371.108 129.919C374.201 131.953 377.717 139.05 378.952 145.752C379.496 148.708 380.58 152.041 381.361 153.16C382.653 155.011 382.781 153.434 382.794 135.61C382.806 119.618 383.019 116.387 383.958 117.999C384.589 119.085 386.018 121.634 387.132 123.664C388.246 125.694 389.793 127.885 390.57 128.532C392.786 130.379 396.023 129.363 397.826 126.257C399.408 123.529 399.404 123.184 397.734 117.649C395.489 110.205 393.873 107.652 380.744 90.8113C373.406 81.3984 370.272 76.705 371.188 76.5014C371.939 76.3352 374.734 76.8404 377.4 77.6248C380.066 78.4092 382.321 78.9658 382.411 78.8612C387.132 76.3034 387.132 74.7355 385.697 71.0769C384.262 67.4183 381.31 65.1068 381.31 65.1068L375.036 58.7605C371.585 55.2699 366.368 50.979 363.443 49.2243C356.262 44.9184 355.287 43.1862 357.971 39.5032C359.162 37.868 359.414 37.8643 364.054 39.4117C372.133 42.1048 373.868 39.9019 368.319 33.9973C363.943 29.3413 353.876 22.9287 346.959 20.3915C327.072 13.0964 315.69 9.34711 308.346 7.67276C305.532 7.03122 300.717 5.8378 297.646 5.01976C285.172 1.69907 255.233 -1.00155 246.008 0.360901Z" fill="#034CAD"/>
<path d="M90.2273 363.5H70.3182C69.9545 360.924 69.2121 358.636 68.0909 356.636C66.9697 354.606 65.5303 352.879 63.7727 351.455C62.0152 350.03 59.9848 348.939 57.6818 348.182C55.4091 347.424 52.9394 347.045 50.2727 347.045C45.4545 347.045 41.2576 348.242 37.6818 350.636C34.1061 353 31.3333 356.455 29.3636 361C27.3939 365.515 26.4091 371 26.4091 377.455C26.4091 384.091 27.3939 389.667 29.3636 394.182C31.3636 398.697 34.1515 402.106 37.7273 404.409C41.303 406.712 45.4394 407.864 50.1364 407.864C52.7727 407.864 55.2121 407.515 57.4545 406.818C59.7273 406.121 61.7424 405.106 63.5 403.773C65.2576 402.409 66.7121 400.758 67.8636 398.818C69.0455 396.879 69.8636 394.667 70.3182 392.182L90.2273 392.273C89.7121 396.545 88.4242 400.667 86.3636 404.636C84.3333 408.576 81.5909 412.106 78.1364 415.227C74.7121 418.318 70.6212 420.773 65.8636 422.591C61.1364 424.379 55.7879 425.273 49.8182 425.273C41.5152 425.273 34.0909 423.394 27.5455 419.636C21.0303 415.879 15.8788 410.439 12.0909 403.318C8.33333 396.197 6.45455 387.576 6.45455 377.455C6.45455 367.303 8.36364 358.667 12.1818 351.545C16 344.424 21.1818 339 27.7273 335.273C34.2727 331.515 41.6364 329.636 49.8182 329.636C55.2121 329.636 60.2121 330.394 64.8182 331.909C69.4545 333.424 73.5606 335.636 77.1364 338.545C80.7121 341.424 83.6212 344.955 85.8636 349.136C88.1364 353.318 89.5909 358.106 90.2273 363.5ZM135.523 425.364C128.462 425.364 122.356 423.864 117.205 420.864C112.083 417.833 108.129 413.621 105.341 408.227C102.553 402.803 101.159 396.515 101.159 389.364C101.159 382.152 102.553 375.848 105.341 370.455C108.129 365.03 112.083 360.818 117.205 357.818C122.356 354.788 128.462 353.273 135.523 353.273C142.583 353.273 148.674 354.788 153.795 357.818C158.947 360.818 162.917 365.03 165.705 370.455C168.492 375.848 169.886 382.152 169.886 389.364C169.886 396.515 168.492 402.803 165.705 408.227C162.917 413.621 158.947 417.833 153.795 420.864C148.674 423.864 142.583 425.364 135.523 425.364ZM135.614 410.364C138.826 410.364 141.508 409.455 143.659 407.636C145.811 405.788 147.432 403.273 148.523 400.091C149.644 396.909 150.205 393.288 150.205 389.227C150.205 385.167 149.644 381.545 148.523 378.364C147.432 375.182 145.811 372.667 143.659 370.818C141.508 368.97 138.826 368.045 135.614 368.045C132.371 368.045 129.644 368.97 127.432 370.818C125.25 372.667 123.598 375.182 122.477 378.364C121.386 381.545 120.841 385.167 120.841 389.227C120.841 393.288 121.386 396.909 122.477 400.091C123.598 403.273 125.25 405.788 127.432 407.636C129.644 409.455 132.371 410.364 135.614 410.364ZM213.932 451.636C207.659 451.636 202.28 450.773 197.795 449.045C193.341 447.348 189.795 445.03 187.159 442.091C184.523 439.152 182.811 435.848 182.023 432.182L199.932 429.773C200.477 431.167 201.341 432.47 202.523 433.682C203.705 434.894 205.265 435.864 207.205 436.591C209.174 437.348 211.568 437.727 214.386 437.727C218.598 437.727 222.068 436.697 224.795 434.636C227.553 432.606 228.932 429.197 228.932 424.409V411.636H228.114C227.265 413.576 225.992 415.409 224.295 417.136C222.598 418.864 220.417 420.273 217.75 421.364C215.083 422.455 211.902 423 208.205 423C202.962 423 198.189 421.788 193.886 419.364C189.614 416.909 186.205 413.167 183.659 408.136C181.144 403.076 179.886 396.682 179.886 388.955C179.886 381.045 181.174 374.439 183.75 369.136C186.326 363.833 189.75 359.864 194.023 357.227C198.326 354.591 203.038 353.273 208.159 353.273C212.068 353.273 215.341 353.939 217.977 355.273C220.614 356.576 222.735 358.212 224.341 360.182C225.977 362.121 227.235 364.03 228.114 365.909H228.841V354.182H248.068V424.682C248.068 430.621 246.614 435.591 243.705 439.591C240.795 443.591 236.765 446.591 231.614 448.591C226.492 450.621 220.598 451.636 213.932 451.636ZM214.341 408.455C217.462 408.455 220.098 407.682 222.25 406.136C224.432 404.561 226.098 402.318 227.25 399.409C228.432 396.47 229.023 392.955 229.023 388.864C229.023 384.773 228.447 381.227 227.295 378.227C226.144 375.197 224.477 372.848 222.295 371.182C220.114 369.515 217.462 368.682 214.341 368.682C211.159 368.682 208.477 369.545 206.295 371.273C204.114 372.97 202.462 375.333 201.341 378.364C200.22 381.394 199.659 384.894 199.659 388.864C199.659 392.894 200.22 396.379 201.341 399.318C202.492 402.227 204.144 404.485 206.295 406.091C208.477 407.667 211.159 408.455 214.341 408.455ZM282.841 383.636V424H263.477V354.182H281.932V366.5H282.75C284.295 362.439 286.886 359.227 290.523 356.864C294.159 354.47 298.568 353.273 303.75 353.273C308.598 353.273 312.826 354.333 316.432 356.455C320.038 358.576 322.841 361.606 324.841 365.545C326.841 369.455 327.841 374.121 327.841 379.545V424H308.477V383C308.508 378.727 307.417 375.394 305.205 373C302.992 370.576 299.947 369.364 296.068 369.364C293.462 369.364 291.159 369.924 289.159 371.045C287.189 372.167 285.644 373.803 284.523 375.955C283.432 378.076 282.871 380.636 282.841 383.636ZM343.102 424V354.182H362.466V424H343.102ZM352.83 345.182C349.951 345.182 347.481 344.227 345.42 342.318C343.39 340.379 342.375 338.061 342.375 335.364C342.375 332.697 343.39 330.409 345.42 328.5C347.481 326.561 349.951 325.591 352.83 325.591C355.708 325.591 358.163 326.561 360.193 328.5C362.254 330.409 363.284 332.697 363.284 335.364C363.284 338.061 362.254 340.379 360.193 342.318C358.163 344.227 355.708 345.182 352.83 345.182ZM415.114 354.182V368.727H373.068V354.182H415.114ZM382.614 337.455H401.977V402.545C401.977 404.333 402.25 405.727 402.795 406.727C403.341 407.697 404.098 408.379 405.068 408.773C406.068 409.167 407.22 409.364 408.523 409.364C409.432 409.364 410.341 409.288 411.25 409.136C412.159 408.955 412.856 408.818 413.341 408.727L416.386 423.136C415.417 423.439 414.053 423.788 412.295 424.182C410.538 424.606 408.402 424.864 405.886 424.955C401.22 425.136 397.129 424.515 393.614 423.091C390.129 421.667 387.417 419.455 385.477 416.455C383.538 413.455 382.583 409.667 382.614 405.091V337.455ZM458.523 425.364C451.462 425.364 445.356 423.864 440.205 420.864C435.083 417.833 431.129 413.621 428.341 408.227C425.553 402.803 424.159 396.515 424.159 389.364C424.159 382.152 425.553 375.848 428.341 370.455C431.129 365.03 435.083 360.818 440.205 357.818C445.356 354.788 451.462 353.273 458.523 353.273C465.583 353.273 471.674 354.788 476.795 357.818C481.947 360.818 485.917 365.03 488.705 370.455C491.492 375.848 492.886 382.152 492.886 389.364C492.886 396.515 491.492 402.803 488.705 408.227C485.917 413.621 481.947 417.833 476.795 420.864C471.674 423.864 465.583 425.364 458.523 425.364ZM458.614 410.364C461.826 410.364 464.508 409.455 466.659 407.636C468.811 405.788 470.432 403.273 471.523 400.091C472.644 396.909 473.205 393.288 473.205 389.227C473.205 385.167 472.644 381.545 471.523 378.364C470.432 375.182 468.811 372.667 466.659 370.818C464.508 368.97 461.826 368.045 458.614 368.045C455.371 368.045 452.644 368.97 450.432 370.818C448.25 372.667 446.598 375.182 445.477 378.364C444.386 381.545 443.841 385.167 443.841 389.227C443.841 393.288 444.386 396.909 445.477 400.091C446.598 403.273 448.25 405.788 450.432 407.636C452.644 409.455 455.371 410.364 458.614 410.364Z" fill="#FFF1F1"/>
<path d="M73.0909 492H63.7259V464.364H73.2798C76.0237 464.364 78.3807 464.917 80.3509 466.023C82.33 467.121 83.8504 468.7 84.9119 470.76C85.9735 472.82 86.5043 475.285 86.5043 478.155C86.5043 481.034 85.969 483.508 84.8984 485.577C83.8369 487.646 82.303 489.234 80.2969 490.34C78.2997 491.447 75.8977 492 73.0909 492ZM68.7322 487.668H72.848C74.7732 487.668 76.379 487.317 77.6655 486.616C78.9519 485.905 79.919 484.848 80.5668 483.445C81.2145 482.032 81.5384 480.269 81.5384 478.155C81.5384 476.041 81.2145 474.286 80.5668 472.892C79.919 471.489 78.9609 470.441 77.6925 469.748C76.433 469.046 74.8677 468.695 72.9964 468.695H68.7322V487.668ZM99.5302 492.297C98.7115 492.297 98.0098 492.009 97.4251 491.433C96.8403 490.857 96.5524 490.156 96.5614 489.328C96.5524 488.518 96.8403 487.826 97.4251 487.25C98.0098 486.674 98.7115 486.386 99.5302 486.386C100.322 486.386 101.01 486.674 101.595 487.25C102.189 487.826 102.49 488.518 102.499 489.328C102.49 489.877 102.346 490.376 102.067 490.826C101.797 491.276 101.437 491.636 100.988 491.906C100.547 492.166 100.061 492.297 99.5302 492.297ZM118.527 492H113.184L122.913 464.364H129.093L138.836 492H133.493L126.111 470.031H125.895L118.527 492ZM118.703 481.164H133.277V485.185H118.703V481.164ZM152.49 492.297C151.671 492.297 150.969 492.009 150.385 491.433C149.8 490.857 149.512 490.156 149.521 489.328C149.512 488.518 149.8 487.826 150.385 487.25C150.969 486.674 151.671 486.386 152.49 486.386C153.281 486.386 153.97 486.674 154.554 487.25C155.148 487.826 155.449 488.518 155.458 489.328C155.449 489.877 155.306 490.376 155.027 490.826C154.757 491.276 154.397 491.636 153.947 491.906C153.506 492.166 153.02 492.297 152.49 492.297ZM171.635 464.364L178.828 486.116H179.111L186.29 464.364H191.796L182.053 492H175.873L166.143 464.364H171.635ZM201.775 492.297C200.957 492.297 200.255 492.009 199.67 491.433C199.086 490.857 198.798 490.156 198.807 489.328C198.798 488.518 199.086 487.826 199.67 487.25C200.255 486.674 200.957 486.386 201.775 486.386C202.567 486.386 203.255 486.674 203.84 487.25C204.434 487.826 204.735 488.518 204.744 489.328C204.735 489.877 204.591 490.376 204.312 490.826C204.042 491.276 203.683 491.636 203.233 491.906C202.792 492.166 202.306 492.297 201.775 492.297ZM238.022 464.364V492H233.016V464.364H238.022ZM249.449 468.56V464.364H271.499V468.56H262.957V492H257.991V468.56H249.449ZM323.271 473.688H318.224C318.08 472.861 317.815 472.127 317.428 471.489C317.041 470.841 316.56 470.292 315.984 469.842C315.408 469.393 314.751 469.055 314.014 468.83C313.285 468.596 312.498 468.479 311.652 468.479C310.15 468.479 308.818 468.857 307.658 469.613C306.497 470.36 305.589 471.457 304.932 472.906C304.275 474.345 303.947 476.104 303.947 478.182C303.947 480.296 304.275 482.077 304.932 483.526C305.598 484.965 306.506 486.054 307.658 486.791C308.818 487.52 310.145 487.884 311.639 487.884C312.466 487.884 313.24 487.776 313.96 487.56C314.688 487.335 315.341 487.007 315.916 486.575C316.501 486.143 316.991 485.613 317.387 484.983C317.792 484.353 318.071 483.634 318.224 482.824L323.271 482.851C323.082 484.164 322.673 485.397 322.043 486.548C321.422 487.7 320.608 488.716 319.6 489.598C318.593 490.471 317.414 491.154 316.065 491.649C314.715 492.135 313.218 492.378 311.571 492.378C309.142 492.378 306.974 491.816 305.067 490.691C303.16 489.567 301.657 487.943 300.56 485.82C299.462 483.696 298.914 481.151 298.914 478.182C298.914 475.204 299.467 472.658 300.573 470.544C301.68 468.421 303.187 466.797 305.094 465.673C307.001 464.548 309.16 463.986 311.571 463.986C313.11 463.986 314.54 464.202 315.862 464.634C317.185 465.065 318.363 465.7 319.398 466.536C320.433 467.364 321.283 468.38 321.948 469.586C322.623 470.782 323.064 472.15 323.271 473.688ZM335.076 492V464.364H340.082V487.803H352.254V492H335.076ZM381.24 464.364H386.247V482.419C386.247 484.398 385.779 486.139 384.843 487.641C383.916 489.144 382.612 490.318 380.93 491.163C379.247 492 377.282 492.418 375.033 492.418C372.775 492.418 370.805 492 369.122 491.163C367.44 490.318 366.135 489.144 365.209 487.641C364.282 486.139 363.819 484.398 363.819 482.419V464.364H368.825V482.001C368.825 483.152 369.077 484.178 369.581 485.077C370.094 485.977 370.814 486.683 371.74 487.196C372.667 487.7 373.764 487.952 375.033 487.952C376.301 487.952 377.399 487.7 378.325 487.196C379.261 486.683 379.981 485.977 380.484 485.077C380.988 484.178 381.24 483.152 381.24 482.001V464.364ZM398.908 492V464.364H409.488C411.485 464.364 413.145 464.679 414.467 465.308C415.798 465.929 416.793 466.779 417.449 467.859C418.115 468.938 418.448 470.162 418.448 471.529C418.448 472.654 418.232 473.616 417.8 474.417C417.368 475.209 416.788 475.852 416.059 476.347C415.331 476.841 414.517 477.197 413.617 477.413V477.683C414.597 477.737 415.538 478.038 416.437 478.587C417.346 479.126 418.088 479.891 418.664 480.881C419.24 481.87 419.527 483.067 419.527 484.47C419.527 485.901 419.181 487.187 418.488 488.33C417.796 489.463 416.752 490.358 415.358 491.015C413.963 491.672 412.209 492 410.095 492H398.908ZM403.914 487.817H409.299C411.116 487.817 412.425 487.47 413.226 486.778C414.035 486.076 414.44 485.176 414.44 484.079C414.44 483.26 414.238 482.522 413.833 481.866C413.428 481.2 412.852 480.678 412.106 480.3C411.359 479.914 410.468 479.72 409.434 479.72H403.914V487.817ZM403.914 476.117H408.867C409.731 476.117 410.509 475.96 411.201 475.645C411.894 475.321 412.438 474.867 412.834 474.282C413.239 473.688 413.441 472.987 413.441 472.177C413.441 471.106 413.064 470.225 412.308 469.532C411.561 468.839 410.45 468.493 408.975 468.493H403.914V476.117Z" fill="#FFF1F1"/>
</svg>
