<svg width="242" height="151" viewBox="0 0 242 151" fill="none" xmlns="http://www.w3.org/2000/svg">
<mask id="mask0_32_173" style="mask-type:alpha" maskUnits="userSpaceOnUse" x="0" y="0" width="141" height="151">
<path d="M139.435 116.656C130.419 130.258 117.201 140.598 101.759 146.127C86.318 151.656 69.4854 152.076 53.783 147.324C38.0806 142.573 24.3537 132.906 14.6586 119.771C4.96355 106.636 -0.177818 90.7402 0.00469666 74.4651C0.187212 58.1901 5.68379 42.4118 15.671 29.4938C25.6583 16.5757 39.5986 7.21341 55.4037 2.80924C71.2087 -1.59493 88.0278 -0.803833 103.341 5.06402C118.655 10.9319 131.638 21.5606 140.347 35.358L75.9571 75.3023L139.435 116.656Z" fill="#D9D9D9"/>
</mask>
<g mask="url(#mask0_32_173)">
<path d="M68.0995 4.36536H61.988V42.3439H68.0995V4.36536Z" fill="#055970"/>
<path d="M79.0128 3.49231H73.3379V40.5978H79.0128V3.49231Z" fill="#055970"/>
<path d="M89.9262 4.80188H84.6877V42.3439H89.9262V4.80188Z" fill="#055970"/>
<path d="M102.586 17.8979H96.9109V42.3439H102.586V17.8979Z" fill="#055970"/>
<path d="M55.4399 17.8979H49.3284V42.3439H55.4399V17.8979Z" fill="#055970"/>
<path d="M116.555 29.2479H110.88V47.5824H116.555V29.2479Z" fill="#055970"/>
<path d="M141.001 45.3997H110.88V51.9478H141.001V45.3997Z" fill="#055970"/>
<path d="M41.4709 29.2479H35.7959V47.5824H41.4709V29.2479Z" fill="#055970"/>
<path d="M41.4708 45.3997H11.3499V51.9478H41.4708V45.3997Z" fill="#055970"/>
<path d="M68.0995 107.824H61.988V145.802H68.0995V107.824Z" fill="#055970"/>
<path d="M79.4494 109.134H72.9014V147.113H79.4494V109.134Z" fill="#055970"/>
<path d="M90.3627 107.824H84.2512V145.802H90.3627V107.824Z" fill="#055970"/>
<path d="M103.022 107.824H96.4741V131.833H103.022V107.824Z" fill="#055970"/>
<path d="M55.4399 107.824H49.3284V131.833H55.4399V107.824Z" fill="#055970"/>
<path d="M41.4707 98.2203H10.9133V104.768H41.4707V98.2203Z" fill="#055970"/>
<path d="M41.4709 98.2203H35.3594V120.484H41.4709V98.2203Z" fill="#055970"/>
<path d="M141.001 98.2203H110.443V104.768H141.001V98.2203Z" fill="#055970"/>
<path d="M116.555 99.0934H110.443V121.357H116.555V99.0934Z" fill="#055970"/>
<path d="M147.549 57.6226H104.769V63.7341H147.549V57.6226Z" fill="#0F4D70"/>
<path d="M147.549 72.4648H104.769V78.1397H147.549V72.4648Z" fill="#055970"/>
<path d="M147.549 86.434H104.332V92.5455H147.549V86.434Z" fill="#0F4D70"/>
<path d="M47.5824 57.6226H4.802V63.7341H47.5824V57.6226Z" fill="#055970"/>
<path d="M47.5824 72.4648H4.802V78.1397H47.5824V72.4648Z" fill="#055970"/>
<path d="M47.5824 86.434H4.802V92.5455H47.5824V86.434Z" fill="#055970"/>
<path d="M52.1659 19.6441C55.6618 19.6441 58.4957 16.8101 58.4957 13.3143C58.4957 9.81849 55.6618 6.98456 52.1659 6.98456C48.6701 6.98456 45.8362 9.81849 45.8362 13.3143C45.8362 16.8101 48.6701 19.6441 52.1659 19.6441Z" fill="#055970"/>
<path d="M52.1659 143.184C55.6618 143.184 58.4957 140.35 58.4957 136.854C58.4957 133.358 55.6618 130.524 52.1659 130.524C48.6701 130.524 45.8362 133.358 45.8362 136.854C45.8362 140.35 48.6701 143.184 52.1659 143.184Z" fill="#055970"/>
<path d="M99.7482 143.184C103.244 143.184 106.078 140.35 106.078 136.854C106.078 133.358 103.244 130.524 99.7482 130.524C96.2524 130.524 93.4185 133.358 93.4185 136.854C93.4185 140.35 96.2524 143.184 99.7482 143.184Z" fill="#055970"/>
<path d="M114.154 132.27C117.65 132.27 120.484 129.436 120.484 125.94C120.484 122.444 117.65 119.61 114.154 119.61C110.658 119.61 107.824 122.444 107.824 125.94C107.824 129.436 110.658 132.27 114.154 132.27Z" fill="#055970"/>
<path d="M128.559 120.92C132.055 120.92 134.889 118.086 134.889 114.59C134.889 111.094 132.055 108.26 128.559 108.26C125.063 108.26 122.229 111.094 122.229 114.59C122.229 118.086 125.063 120.92 128.559 120.92Z" fill="#055970"/>
<path d="M38.1967 132.27C41.6925 132.27 44.5265 129.436 44.5265 125.94C44.5265 122.444 41.6925 119.61 38.1967 119.61C34.7009 119.61 31.8669 122.444 31.8669 125.94C31.8669 129.436 34.7009 132.27 38.1967 132.27Z" fill="#055970"/>
<path d="M38.6335 30.5575C42.1293 30.5575 44.9632 27.7235 44.9632 24.2277C44.9632 20.7319 42.1293 17.8979 38.6335 17.8979C35.1376 17.8979 32.3037 20.7319 32.3037 24.2277C32.3037 27.7235 35.1376 30.5575 38.6335 30.5575Z" fill="#055970"/>
<path d="M23.7912 41.9074C27.287 41.9074 30.1209 39.0735 30.1209 35.5776C30.1209 32.0818 27.287 29.2479 23.7912 29.2479C20.2954 29.2479 17.4614 32.0818 17.4614 35.5776C17.4614 39.0735 20.2954 41.9074 23.7912 41.9074Z" fill="#055970"/>
<path d="M99.7482 19.6441C103.244 19.6441 106.078 16.8101 106.078 13.3143C106.078 9.81849 103.244 6.98456 99.7482 6.98456C96.2524 6.98456 93.4185 9.81849 93.4185 13.3143C93.4185 16.8101 96.2524 19.6441 99.7482 19.6441Z" fill="#055970"/>
<path d="M114.154 30.5575C117.65 30.5575 120.484 27.7235 120.484 24.2277C120.484 20.7319 117.65 17.8979 114.154 17.8979C110.658 17.8979 107.824 20.7319 107.824 24.2277C107.824 27.7235 110.658 30.5575 114.154 30.5575Z" fill="#055970"/>
<path d="M128.559 41.9074C132.055 41.9074 134.889 39.0735 134.889 35.5776C134.889 32.0818 132.055 29.2479 128.559 29.2479C125.063 29.2479 122.229 32.0818 122.229 35.5776C122.229 39.0735 125.063 41.9074 128.559 41.9074Z" fill="#055970"/>
<path d="M23.7912 120.92C27.287 120.92 30.1209 118.086 30.1209 114.59C30.1209 111.094 27.287 108.26 23.7912 108.26C20.2954 108.26 17.4614 111.094 17.4614 114.59C17.4614 118.086 20.2954 120.92 23.7912 120.92Z" fill="#055970"/>
<path d="M97.4663 54.4477H54.884V96.1569H97.4663V54.4477Z" stroke="#0880A2" stroke-width="5"/>
<path d="M76.1755 89.4897C83.7699 89.4897 89.9264 83.3332 89.9264 75.7388C89.9264 68.1444 83.7699 61.9879 76.1755 61.9879C68.581 61.9879 62.4246 68.1444 62.4246 75.7388C62.4246 83.3332 68.581 89.4897 76.1755 89.4897Z" fill="#0C3A55"/>
</g>
<path d="M121.294 82.2941H122.471V83.4706H121.294V82.2941ZM120.118 82.2941H121.294V83.4706H120.118V82.2941ZM118.941 82.2941H120.118V83.4706H118.941V82.2941ZM118.941 83.4706H120.118V84.6471H118.941V83.4706ZM120.118 83.4706H121.294V84.6471H120.118V83.4706ZM118.941 84.6471H120.118V85.8235H118.941V84.6471ZM117.765 84.6471H118.941V85.8235H117.765V84.6471ZM120.118 84.6471H121.294V85.8235H120.118V84.6471ZM117.765 85.8235H118.941V87H117.765V85.8235ZM116.588 85.8235H117.765V87H116.588V85.8235ZM115.412 85.8235H116.588V87H115.412V85.8235ZM114.235 85.8235H115.412V87H114.235V85.8235ZM113.059 85.8235H114.235V87H113.059V85.8235ZM111.882 85.8235H113.059V87H111.882V85.8235ZM110.706 85.8235H111.882V87H110.706V85.8235ZM110.706 84.6471H111.882V85.8235H110.706V84.6471ZM109.529 84.6471H110.706V85.8235H109.529V84.6471ZM108.353 84.6471H109.529V85.8235H108.353V84.6471ZM108.353 83.4706H109.529V84.6471H108.353V83.4706ZM109.529 83.4706H110.706V84.6471H109.529V83.4706ZM110.706 83.4706H111.882V84.6471H110.706V83.4706ZM111.882 83.4706H113.059V84.6471H111.882V83.4706ZM113.059 83.4706H114.235V84.6471H113.059V83.4706ZM114.235 83.4706H115.412V84.6471H114.235V83.4706ZM115.412 83.4706H116.588V84.6471H115.412V83.4706ZM116.588 83.4706H117.765V84.6471H116.588V83.4706ZM117.765 83.4706H118.941V84.6471H117.765V83.4706ZM116.588 84.6471H117.765V85.8235H116.588V84.6471ZM115.412 84.6471H116.588V85.8235H115.412V84.6471ZM114.235 84.6471H115.412V85.8235H114.235V84.6471ZM113.059 84.6471H114.235V85.8235H113.059V84.6471ZM111.882 84.6471H113.059V85.8235H111.882V84.6471ZM109.529 82.2941H110.706V83.4706H109.529V82.2941ZM108.353 82.2941H109.529V83.4706H108.353V82.2941ZM107.176 82.2941H108.353V83.4706H107.176V82.2941ZM109.529 81.1176H110.706V82.2941H109.529V81.1176ZM110.706 81.1176H111.882V82.2941H110.706V81.1176ZM111.882 81.1176H113.059V82.2941H111.882V81.1176ZM111.882 82.2941H113.059V83.4706H111.882V82.2941ZM110.706 82.2941H111.882V83.4706H110.706V82.2941ZM108.353 81.1176H109.529V82.2941H108.353V81.1176ZM108.353 79.9412H109.529V81.1176H108.353V79.9412ZM107.176 79.9412H108.353V81.1176H107.176V79.9412ZM107.176 78.7647H108.353V79.9412H107.176V78.7647ZM107.176 81.1176H108.353V82.2941H107.176V81.1176ZM107.176 77.5882H108.353V78.7647H107.176V77.5882ZM108.353 77.5882H109.529V78.7647H108.353V77.5882ZM109.529 77.5882H110.706V78.7647H109.529V77.5882ZM110.706 77.5882H111.882V78.7647H110.706V77.5882ZM110.706 78.7647H111.882V79.9412H110.706V78.7647ZM110.706 79.9412H111.882V81.1176H110.706V79.9412ZM109.529 78.7647H110.706V79.9412H109.529V78.7647ZM108.353 78.7647H109.529V79.9412H108.353V78.7647ZM109.529 79.9412H110.706V81.1176H109.529V79.9412ZM113.059 82.2941H114.235V83.4706H113.059V82.2941ZM114.235 82.2941H115.412V83.4706H114.235V82.2941ZM115.412 82.2941H116.588V83.4706H115.412V82.2941ZM116.588 82.2941H117.765V83.4706H116.588V82.2941ZM117.765 82.2941H118.941V83.4706H117.765V82.2941ZM117.765 81.1176H118.941V82.2941H117.765V81.1176ZM116.588 81.1176H117.765V82.2941H116.588V81.1176ZM118.941 81.1176H120.118V82.2941H118.941V81.1176ZM120.118 81.1176H121.294V82.2941H120.118V81.1176ZM120.118 79.9412H121.294V81.1176H120.118V79.9412ZM121.294 79.9412H122.471V81.1176H121.294V79.9412ZM121.294 78.7647H122.471V79.9412H121.294V78.7647ZM121.294 81.1176H122.471V82.2941H121.294V81.1176ZM121.294 77.5882H122.471V78.7647H121.294V77.5882ZM121.294 76.4118H122.471V77.5882H121.294V76.4118ZM121.294 75.2353H122.471V76.4118H121.294V75.2353ZM121.294 74.0588H122.471V75.2353H121.294V74.0588ZM121.294 72.8824H122.471V74.0588H121.294V72.8824ZM120.118 72.8824H121.294V74.0588H120.118V72.8824ZM120.118 71.7059H121.294V72.8824H120.118V71.7059ZM118.941 72.8824H120.118V74.0588H118.941V72.8824ZM117.765 72.8824H118.941V74.0588H117.765V72.8824ZM117.765 74.0588H118.941V75.2353H117.765V74.0588ZM117.765 75.2353H118.941V76.4118H117.765V75.2353ZM117.765 76.4118H118.941V77.5882H117.765V76.4118ZM117.765 77.5882H118.941V78.7647H117.765V77.5882ZM117.765 78.7647H118.941V79.9412H117.765V78.7647ZM117.765 79.9412H118.941V81.1176H117.765V79.9412ZM118.941 79.9412H120.118V81.1176H118.941V79.9412ZM118.941 78.7647H120.118V79.9412H118.941V78.7647ZM120.118 78.7647H121.294V79.9412H120.118V78.7647ZM120.118 77.5882H121.294V78.7647H120.118V77.5882ZM120.118 76.4118H121.294V77.5882H120.118V76.4118ZM120.118 75.2353H121.294V76.4118H120.118V75.2353ZM118.941 74.0588H120.118V75.2353H118.941V74.0588ZM118.941 75.2353H120.118V76.4118H118.941V75.2353ZM118.941 76.4118H120.118V77.5882H118.941V76.4118ZM118.941 77.5882H120.118V78.7647H118.941V77.5882ZM120.118 74.0588H121.294V75.2353H120.118V74.0588ZM121.294 71.7059H122.471V72.8824H121.294V71.7059ZM121.294 70.5294H122.471V71.7059H121.294V70.5294ZM121.294 69.3529H122.471V70.5294H121.294V69.3529ZM121.294 68.1765H122.471V69.3529H121.294V68.1765ZM121.294 67H122.471V68.1765H121.294V67ZM120.118 67H121.294V68.1765H120.118V67ZM120.118 65.8235H121.294V67H120.118V65.8235ZM120.118 64.6471H121.294V65.8235H120.118V64.6471ZM118.941 64.6471H120.118V65.8235H118.941V64.6471ZM117.765 64.6471H118.941V65.8235H117.765V64.6471ZM118.941 71.7059H120.118V72.8824H118.941V71.7059ZM118.941 70.5294H120.118V71.7059H118.941V70.5294ZM118.941 69.3529H120.118V70.5294H118.941V69.3529ZM120.118 69.3529H121.294V70.5294H120.118V69.3529ZM120.118 68.1765H121.294V69.3529H120.118V68.1765ZM120.118 70.5294H121.294V71.7059H120.118V70.5294ZM117.765 71.7059H118.941V72.8824H117.765V71.7059ZM117.765 70.5294H118.941V71.7059H117.765V70.5294ZM118.941 68.1765H120.118V69.3529H118.941V68.1765ZM117.765 68.1765H118.941V69.3529H117.765V68.1765ZM117.765 69.3529H118.941V70.5294H117.765V69.3529ZM116.588 68.1765H117.765V69.3529H116.588V68.1765ZM116.588 67H117.765V68.1765H116.588V67ZM117.765 65.8235H118.941V67H117.765V65.8235ZM118.941 65.8235H120.118V67H118.941V65.8235ZM118.941 67H120.118V68.1765H118.941V67ZM117.765 67H118.941V68.1765H117.765V67ZM116.588 65.8235H117.765V67H116.588V65.8235ZM116.588 64.6471H117.765V65.8235H116.588V64.6471ZM116.588 63.4706H117.765V64.6471H116.588V63.4706ZM117.765 63.4706H118.941V64.6471H117.765V63.4706ZM115.412 63.4706H116.588V64.6471H115.412V63.4706ZM114.235 63.4706H115.412V64.6471H114.235V63.4706ZM113.059 63.4706H114.235V64.6471H113.059V63.4706ZM111.882 63.4706H113.059V64.6471H111.882V63.4706ZM111.882 64.6471H113.059V65.8235H111.882V64.6471ZM110.706 64.6471H111.882V65.8235H110.706V64.6471ZM110.706 63.4706H111.882V64.6471H110.706V63.4706ZM109.529 64.6471H110.706V65.8235H109.529V64.6471ZM108.353 64.6471H109.529V65.8235H108.353V64.6471ZM108.353 65.8235H109.529V67H108.353V65.8235ZM108.353 67H109.529V68.1765H108.353V67ZM107.176 67H108.353V68.1765H107.176V67ZM107.176 68.1765H108.353V69.3529H107.176V68.1765ZM108.353 68.1765H109.529V69.3529H108.353V68.1765ZM109.529 68.1765H110.706V69.3529H109.529V68.1765ZM110.706 68.1765H111.882V69.3529H110.706V68.1765ZM111.882 68.1765H113.059V69.3529H111.882V68.1765ZM111.882 67H113.059V68.1765H111.882V67ZM113.059 67H114.235V68.1765H113.059V67ZM114.235 67H115.412V68.1765H114.235V67ZM115.412 67H116.588V68.1765H115.412V67ZM115.412 64.6471H116.588V65.8235H115.412V64.6471ZM115.412 65.8235H116.588V67H115.412V65.8235ZM114.235 65.8235H115.412V67H114.235V65.8235ZM113.059 65.8235H114.235V67H113.059V65.8235ZM114.235 64.6471H115.412V65.8235H114.235V64.6471ZM113.059 64.6471H114.235V65.8235H113.059V64.6471ZM111.882 65.8235H113.059V67H111.882V65.8235ZM110.706 65.8235H111.882V67H110.706V65.8235ZM110.706 67H111.882V68.1765H110.706V67ZM109.529 67H110.706V68.1765H109.529V67ZM109.529 65.8235H110.706V67H109.529V65.8235ZM109.529 69.3529H110.706V70.5294H109.529V69.3529ZM109.529 70.5294H110.706V71.7059H109.529V70.5294ZM109.529 71.7059H110.706V72.8824H109.529V71.7059ZM109.529 72.8824H110.706V74.0588H109.529V72.8824ZM110.706 72.8824H111.882V74.0588H110.706V72.8824ZM110.706 74.0588H111.882V75.2353H110.706V74.0588ZM110.706 71.7059H111.882V72.8824H110.706V71.7059ZM110.706 70.5294H111.882V71.7059H110.706V70.5294ZM110.706 69.3529H111.882V70.5294H110.706V69.3529ZM110.706 75.2353H111.882V76.4118H110.706V75.2353ZM110.706 76.4118H111.882V77.5882H110.706V76.4118ZM109.529 76.4118H110.706V77.5882H109.529V76.4118ZM108.353 76.4118H109.529V77.5882H108.353V76.4118ZM107.176 75.2353H108.353V76.4118H107.176V75.2353ZM107.176 76.4118H108.353V77.5882H107.176V76.4118ZM107.176 74.0588H108.353V75.2353H107.176V74.0588ZM107.176 72.8824H108.353V74.0588H107.176V72.8824ZM107.176 71.7059H108.353V72.8824H107.176V71.7059ZM107.176 70.5294H108.353V71.7059H107.176V70.5294ZM107.176 69.3529H108.353V70.5294H107.176V69.3529ZM108.353 70.5294H109.529V71.7059H108.353V70.5294ZM108.353 71.7059H109.529V72.8824H108.353V71.7059ZM108.353 72.8824H109.529V74.0588H108.353V72.8824ZM108.353 74.0588H109.529V75.2353H108.353V74.0588ZM108.353 75.2353H109.529V76.4118H108.353V75.2353ZM109.529 75.2353H110.706V76.4118H109.529V75.2353ZM109.529 74.0588H110.706V75.2353H109.529V74.0588ZM108.353 69.3529H109.529V70.5294H108.353V69.3529ZM140.122 82.2941H141.299V83.4706H140.122V82.2941ZM138.946 82.2941H140.122V83.4706H138.946V82.2941ZM137.769 82.2941H138.946V83.4706H137.769V82.2941ZM137.769 83.4706H138.946V84.6471H137.769V83.4706ZM138.946 83.4706H140.122V84.6471H138.946V83.4706ZM137.769 84.6471H138.946V85.8235H137.769V84.6471ZM136.593 84.6471H137.769V85.8235H136.593V84.6471ZM138.946 84.6471H140.122V85.8235H138.946V84.6471ZM136.593 85.8235H137.769V87H136.593V85.8235ZM135.416 85.8235H136.593V87H135.416V85.8235ZM134.24 85.8235H135.416V87H134.24V85.8235ZM133.063 85.8235H134.24V87H133.063V85.8235ZM131.887 85.8235H133.063V87H131.887V85.8235ZM130.71 85.8235H131.887V87H130.71V85.8235ZM129.534 85.8235H130.71V87H129.534V85.8235ZM129.534 84.6471H130.71V85.8235H129.534V84.6471ZM128.358 84.6471H129.534V85.8235H128.358V84.6471ZM127.181 84.6471H128.358V85.8235H127.181V84.6471ZM127.181 83.4706H128.358V84.6471H127.181V83.4706ZM128.358 83.4706H129.534V84.6471H128.358V83.4706ZM129.534 83.4706H130.71V84.6471H129.534V83.4706ZM130.71 83.4706H131.887V84.6471H130.71V83.4706ZM131.887 83.4706H133.063V84.6471H131.887V83.4706ZM133.063 83.4706H134.24V84.6471H133.063V83.4706ZM134.24 83.4706H135.416V84.6471H134.24V83.4706ZM135.416 83.4706H136.593V84.6471H135.416V83.4706ZM136.593 83.4706H137.769V84.6471H136.593V83.4706ZM135.416 84.6471H136.593V85.8235H135.416V84.6471ZM134.24 84.6471H135.416V85.8235H134.24V84.6471ZM133.063 84.6471H134.24V85.8235H133.063V84.6471ZM131.887 84.6471H133.063V85.8235H131.887V84.6471ZM130.71 84.6471H131.887V85.8235H130.71V84.6471ZM128.358 82.2941H129.534V83.4706H128.358V82.2941ZM127.181 82.2941H128.358V83.4706H127.181V82.2941ZM126.005 82.2941H127.181V83.4706H126.005V82.2941ZM128.358 81.1176H129.534V82.2941H128.358V81.1176ZM129.534 81.1176H130.71V82.2941H129.534V81.1176ZM130.71 82.2941H131.887V83.4706H130.71V82.2941ZM129.534 82.2941H130.71V83.4706H129.534V82.2941ZM127.181 81.1176H128.358V82.2941H127.181V81.1176ZM127.181 79.9412H128.358V81.1176H127.181V79.9412ZM126.005 79.9412H127.181V81.1176H126.005V79.9412ZM126.005 78.7647H127.181V79.9412H126.005V78.7647ZM126.005 81.1176H127.181V82.2941H126.005V81.1176ZM126.005 77.5882H127.181V78.7647H126.005V77.5882ZM127.181 77.5882H128.358V78.7647H127.181V77.5882ZM128.358 77.5882H129.534V78.7647H128.358V77.5882ZM129.534 77.5882H130.71V78.7647H129.534V77.5882ZM129.534 78.7647H130.71V79.9412H129.534V78.7647ZM129.534 79.9412H130.71V81.1176H129.534V79.9412ZM128.358 78.7647H129.534V79.9412H128.358V78.7647ZM127.181 78.7647H128.358V79.9412H127.181V78.7647ZM128.358 79.9412H129.534V81.1176H128.358V79.9412ZM131.887 82.2941H133.063V83.4706H131.887V82.2941ZM133.063 82.2941H134.24V83.4706H133.063V82.2941ZM134.24 82.2941H135.416V83.4706H134.24V82.2941ZM135.416 82.2941H136.593V83.4706H135.416V82.2941ZM136.593 82.2941H137.769V83.4706H136.593V82.2941ZM136.593 81.1176H137.769V82.2941H136.593V81.1176ZM135.416 81.1176H136.593V82.2941H135.416V81.1176ZM137.769 81.1176H138.946V82.2941H137.769V81.1176ZM138.946 81.1176H140.122V82.2941H138.946V81.1176ZM138.946 79.9412H140.122V81.1176H138.946V79.9412ZM140.122 79.9412H141.299V81.1176H140.122V79.9412ZM140.122 78.7647H141.299V79.9412H140.122V78.7647ZM140.122 81.1176H141.299V82.2941H140.122V81.1176ZM140.122 77.5882H141.299V78.7647H140.122V77.5882ZM140.122 76.4118H141.299V77.5882H140.122V76.4118ZM140.122 75.2353H141.299V76.4118H140.122V75.2353ZM140.122 74.0588H141.299V75.2353H140.122V74.0588ZM140.122 72.8824H141.299V74.0588H140.122V72.8824ZM138.946 72.8824H140.122V74.0588H138.946V72.8824ZM138.946 71.7059H140.122V72.8824H138.946V71.7059ZM137.769 72.8824H138.946V74.0588H137.769V72.8824ZM136.593 72.8824H137.769V74.0588H136.593V72.8824ZM136.593 74.0588H137.769V75.2353H136.593V74.0588ZM136.593 75.2353H137.769V76.4118H136.593V75.2353ZM136.593 76.4118H137.769V77.5882H136.593V76.4118ZM136.593 77.5882H137.769V78.7647H136.593V77.5882ZM136.593 78.7647H137.769V79.9412H136.593V78.7647ZM136.593 79.9412H137.769V81.1176H136.593V79.9412ZM137.769 79.9412H138.946V81.1176H137.769V79.9412ZM137.769 78.7647H138.946V79.9412H137.769V78.7647ZM138.946 78.7647H140.122V79.9412H138.946V78.7647ZM138.946 77.5882H140.122V78.7647H138.946V77.5882ZM138.946 76.4118H140.122V77.5882H138.946V76.4118ZM138.946 75.2353H140.122V76.4118H138.946V75.2353ZM137.769 74.0588H138.946V75.2353H137.769V74.0588ZM137.769 75.2353H138.946V76.4118H137.769V75.2353ZM137.769 76.4118H138.946V77.5882H137.769V76.4118ZM137.769 77.5882H138.946V78.7647H137.769V77.5882ZM138.946 74.0588H140.122V75.2353H138.946V74.0588ZM140.122 71.7059H141.299V72.8824H140.122V71.7059ZM140.122 70.5294H141.299V71.7059H140.122V70.5294ZM140.122 69.3529H141.299V70.5294H140.122V69.3529ZM140.122 68.1765H141.299V69.3529H140.122V68.1765ZM140.122 67H141.299V68.1765H140.122V67ZM138.946 67H140.122V68.1765H138.946V67ZM138.946 65.8235H140.122V67H138.946V65.8235ZM138.946 64.6471H140.122V65.8235H138.946V64.6471ZM137.769 64.6471H138.946V65.8235H137.769V64.6471ZM136.593 64.6471H137.769V65.8235H136.593V64.6471ZM137.769 71.7059H138.946V72.8824H137.769V71.7059ZM137.769 70.5294H138.946V71.7059H137.769V70.5294ZM137.769 69.3529H138.946V70.5294H137.769V69.3529ZM138.946 69.3529H140.122V70.5294H138.946V69.3529ZM138.946 68.1765H140.122V69.3529H138.946V68.1765ZM138.946 70.5294H140.122V71.7059H138.946V70.5294ZM136.593 71.7059H137.769V72.8824H136.593V71.7059ZM136.593 70.5294H137.769V71.7059H136.593V70.5294ZM137.769 68.1765H138.946V69.3529H137.769V68.1765ZM136.593 68.1765H137.769V69.3529H136.593V68.1765ZM136.593 69.3529H137.769V70.5294H136.593V69.3529ZM135.416 68.1765H136.593V69.3529H135.416V68.1765ZM135.416 67H136.593V68.1765H135.416V67ZM136.593 65.8235H137.769V67H136.593V65.8235ZM137.769 65.8235H138.946V67H137.769V65.8235ZM137.769 67H138.946V68.1765H137.769V67ZM136.593 67H137.769V68.1765H136.593V67ZM135.416 65.8235H136.593V67H135.416V65.8235ZM135.416 64.6471H136.593V65.8235H135.416V64.6471ZM135.416 63.4706H136.593V64.6471H135.416V63.4706ZM136.593 63.4706H137.769V64.6471H136.593V63.4706ZM134.24 63.4706H135.416V64.6471H134.24V63.4706ZM133.063 63.4706H134.24V64.6471H133.063V63.4706ZM131.887 63.4706H133.063V64.6471H131.887V63.4706ZM130.71 63.4706H131.887V64.6471H130.71V63.4706ZM130.71 64.6471H131.887V65.8235H130.71V64.6471ZM129.534 64.6471H130.71V65.8235H129.534V64.6471ZM129.534 63.4706H130.71V64.6471H129.534V63.4706ZM128.358 64.6471H129.534V65.8235H128.358V64.6471ZM127.181 64.6471H128.358V65.8235H127.181V64.6471ZM127.181 65.8235H128.358V67H127.181V65.8235ZM127.181 67H128.358V68.1765H127.181V67ZM126.005 67H127.181V68.1765H126.005V67ZM126.005 68.1765H127.181V69.3529H126.005V68.1765ZM127.181 68.1765H128.358V69.3529H127.181V68.1765ZM128.358 68.1765H129.534V69.3529H128.358V68.1765ZM129.534 68.1765H130.71V69.3529H129.534V68.1765ZM130.71 67H131.887V68.1765H130.71V67ZM131.887 67H133.063V68.1765H131.887V67ZM133.063 67H134.24V68.1765H133.063V67ZM134.24 67H135.416V68.1765H134.24V67ZM134.24 64.6471H135.416V65.8235H134.24V64.6471ZM134.24 65.8235H135.416V67H134.24V65.8235ZM133.063 65.8235H134.24V67H133.063V65.8235ZM131.887 65.8235H133.063V67H131.887V65.8235ZM133.063 64.6471H134.24V65.8235H133.063V64.6471ZM131.887 64.6471H133.063V65.8235H131.887V64.6471ZM130.71 65.8235H131.887V67H130.71V65.8235ZM129.534 65.8235H130.71V67H129.534V65.8235ZM129.534 67H130.71V68.1765H129.534V67ZM128.358 67H129.534V68.1765H128.358V67ZM128.358 65.8235H129.534V67H128.358V65.8235ZM128.358 69.3529H129.534V70.5294H128.358V69.3529ZM128.358 70.5294H129.534V71.7059H128.358V70.5294ZM128.358 71.7059H129.534V72.8824H128.358V71.7059ZM128.358 72.8824H129.534V74.0588H128.358V72.8824ZM129.534 72.8824H130.71V74.0588H129.534V72.8824ZM129.534 74.0588H130.71V75.2353H129.534V74.0588ZM129.534 71.7059H130.71V72.8824H129.534V71.7059ZM129.534 70.5294H130.71V71.7059H129.534V70.5294ZM129.534 69.3529H130.71V70.5294H129.534V69.3529ZM129.534 75.2353H130.71V76.4118H129.534V75.2353ZM129.534 76.4118H130.71V77.5882H129.534V76.4118ZM128.358 76.4118H129.534V77.5882H128.358V76.4118ZM127.181 76.4118H128.358V77.5882H127.181V76.4118ZM126.005 75.2353H127.181V76.4118H126.005V75.2353ZM126.005 76.4118H127.181V77.5882H126.005V76.4118ZM126.005 74.0588H127.181V75.2353H126.005V74.0588ZM126.005 72.8824H127.181V74.0588H126.005V72.8824ZM126.005 71.7059H127.181V72.8824H126.005V71.7059ZM126.005 70.5294H127.181V71.7059H126.005V70.5294ZM126.005 69.3529H127.181V70.5294H126.005V69.3529ZM127.181 70.5294H128.358V71.7059H127.181V70.5294ZM127.181 71.7059H128.358V72.8824H127.181V71.7059ZM127.181 72.8824H128.358V74.0588H127.181V72.8824ZM127.181 74.0588H128.358V75.2353H127.181V74.0588ZM127.181 75.2353H128.358V76.4118H127.181V75.2353ZM128.358 75.2353H129.534V76.4118H128.358V75.2353ZM128.358 74.0588H129.534V75.2353H128.358V74.0588ZM127.181 69.3529H128.358V70.5294H127.181V69.3529ZM128.358 63.4706H129.534V64.6471H128.358V63.4706ZM127.181 63.4706H128.358V64.6471H127.181V63.4706ZM126.005 63.4706H127.181V64.6471H126.005V63.4706ZM126.005 64.6471H127.181V65.8235H126.005V64.6471ZM126.005 65.8235H127.181V67H126.005V65.8235ZM126.005 83.4706H127.181V84.6471H126.005V83.4706ZM126.005 84.6471H127.181V85.8235H126.005V84.6471ZM126.005 85.8235H127.181V87H126.005V85.8235ZM127.181 85.8235H128.358V87H127.181V85.8235ZM128.358 85.8235H129.534V87H128.358V85.8235ZM144.833 85.8235H146.009V87H144.833V85.8235ZM146.009 85.8235H147.186V87H146.009V85.8235ZM147.186 85.8235H148.362V87H147.186V85.8235ZM148.362 85.8235H149.539V87H148.362V85.8235ZM148.362 84.6471H149.539V85.8235H148.362V84.6471ZM147.186 84.6471H148.362V85.8235H147.186V84.6471ZM146.009 84.6471H147.186V85.8235H146.009V84.6471ZM144.833 84.6471H146.009V85.8235H144.833V84.6471ZM144.833 83.4706H146.009V84.6471H144.833V83.4706ZM144.833 82.2941H146.009V83.4706H144.833V82.2941ZM144.833 81.1176H146.009V82.2941H144.833V81.1176ZM144.833 79.9412H146.009V81.1176H144.833V79.9412ZM144.833 78.7647H146.009V79.9412H144.833V78.7647ZM144.833 77.5882H146.009V78.7647H144.833V77.5882ZM144.833 76.4118H146.009V77.5882H144.833V76.4118ZM146.009 76.4118H147.186V77.5882H146.009V76.4118ZM146.009 75.2353H147.186V76.4118H146.009V75.2353ZM146.009 74.0588H147.186V75.2353H146.009V74.0588ZM147.186 74.0588H148.362V75.2353H147.186V74.0588ZM147.186 75.2353H148.362V76.4118H147.186V75.2353ZM148.362 75.2353H149.539V76.4118H148.362V75.2353ZM148.362 76.4118H149.539V77.5882H148.362V76.4118ZM148.362 77.5882H149.539V78.7647H148.362V77.5882ZM148.362 78.7647H149.539V79.9412H148.362V78.7647ZM148.362 79.9412H149.539V81.1176H148.362V79.9412ZM148.362 81.1176H149.539V82.2941H148.362V81.1176ZM148.362 82.2941H149.539V83.4706H148.362V82.2941ZM148.362 83.4706H149.539V84.6471H148.362V83.4706ZM147.186 83.4706H148.362V84.6471H147.186V83.4706ZM147.186 82.2941H148.362V83.4706H147.186V82.2941ZM147.186 81.1176H148.362V82.2941H147.186V81.1176ZM147.186 79.9412H148.362V81.1176H147.186V79.9412ZM147.186 78.7647H148.362V79.9412H147.186V78.7647ZM147.186 77.5882H148.362V78.7647H147.186V77.5882ZM147.186 76.4118H148.362V77.5882H147.186V76.4118ZM146.009 77.5882H147.186V78.7647H146.009V77.5882ZM146.009 78.7647H147.186V79.9412H146.009V78.7647ZM146.009 79.9412H147.186V81.1176H146.009V79.9412ZM146.009 81.1176H147.186V82.2941H146.009V81.1176ZM146.009 82.2941H147.186V83.4706H146.009V82.2941ZM146.009 83.4706H147.186V84.6471H146.009V83.4706ZM144.833 63.4706H146.009V64.6471H144.833V63.4706ZM144.833 64.6471H146.009V65.8235H144.833V64.6471ZM144.833 67H146.009V68.1765H144.833V67ZM144.833 68.1765H146.009V69.3529H144.833V68.1765ZM144.833 69.3529H146.009V70.5294H144.833V69.3529ZM144.833 70.5294H146.009V71.7059H144.833V70.5294ZM144.833 71.7059H146.009V72.8824H144.833V71.7059ZM144.833 72.8824H146.009V74.0588H144.833V72.8824ZM144.833 74.0588H146.009V75.2353H144.833V74.0588ZM144.833 75.2353H146.009V76.4118H144.833V75.2353ZM146.009 70.5294H147.186V71.7059H146.009V70.5294ZM146.009 69.3529H147.186V70.5294H146.009V69.3529ZM146.009 68.1765H147.186V69.3529H146.009V68.1765ZM146.009 67H147.186V68.1765H146.009V67ZM146.009 65.8235H147.186V67H146.009V65.8235ZM144.833 65.8235H146.009V67H144.833V65.8235ZM146.009 63.4706H147.186V64.6471H146.009V63.4706ZM147.186 63.4706H148.362V64.6471H147.186V63.4706ZM147.186 64.6471H148.362V65.8235H147.186V64.6471ZM148.362 65.8235H149.539V67H148.362V65.8235ZM148.362 64.6471H149.539V65.8235H148.362V64.6471ZM148.362 63.4706H149.539V64.6471H148.362V63.4706ZM148.362 67H149.539V68.1765H148.362V67ZM148.362 68.1765H149.539V69.3529H148.362V68.1765ZM148.362 69.3529H149.539V70.5294H148.362V69.3529ZM148.362 70.5294H149.539V71.7059H148.362V70.5294ZM148.362 71.7059H149.539V72.8824H148.362V71.7059ZM148.362 72.8824H149.539V74.0588H148.362V72.8824ZM148.362 74.0588H149.539V75.2353H148.362V74.0588ZM147.186 72.8824H148.362V74.0588H147.186V72.8824ZM147.186 71.7059H148.362V72.8824H147.186V71.7059ZM147.186 70.5294H148.362V71.7059H147.186V70.5294ZM146.009 71.7059H147.186V72.8824H146.009V71.7059ZM146.009 72.8824H147.186V74.0588H146.009V72.8824ZM147.186 69.3529H148.362V70.5294H147.186V69.3529ZM147.186 65.8235H148.362V67H147.186V65.8235ZM147.186 67H148.362V68.1765H147.186V67ZM147.186 68.1765H148.362V69.3529H147.186V68.1765ZM146.009 64.6471H147.186V65.8235H146.009V64.6471ZM149.539 85.8235H150.715V87H149.539V85.8235ZM149.539 84.6471H150.715V85.8235H149.539V84.6471ZM149.539 83.4706H150.715V84.6471H149.539V83.4706ZM149.539 82.2941H150.715V83.4706H149.539V82.2941ZM150.715 82.2941H151.892V83.4706H150.715V82.2941ZM151.892 82.2941H153.068V83.4706H151.892V82.2941ZM153.068 82.2941H154.244V83.4706H153.068V82.2941ZM154.244 82.2941H155.421V83.4706H154.244V82.2941ZM154.244 84.6471H155.421V85.8235H154.244V84.6471ZM153.068 84.6471H154.244V85.8235H153.068V84.6471ZM151.892 84.6471H153.068V85.8235H151.892V84.6471ZM150.715 84.6471H151.892V85.8235H150.715V84.6471ZM150.715 83.4706H151.892V84.6471H150.715V83.4706ZM151.892 83.4706H153.068V84.6471H151.892V83.4706ZM153.068 83.4706H154.244V84.6471H153.068V83.4706ZM154.244 83.4706H155.421V84.6471H154.244V83.4706ZM154.244 85.8235H155.421V87H154.244V85.8235ZM153.068 85.8235H154.244V87H153.068V85.8235ZM151.892 85.8235H153.068V87H151.892V85.8235ZM150.715 85.8235H151.892V87H150.715V85.8235ZM149.539 63.4706H150.715V64.6471H149.539V63.4706ZM150.715 63.4706H151.892V64.6471H150.715V63.4706ZM151.892 63.4706H153.068V64.6471H151.892V63.4706ZM153.068 63.4706H154.244V64.6471H153.068V63.4706ZM154.244 63.4706H155.421V64.6471H154.244V63.4706ZM154.244 64.6471H155.421V65.8235H154.244V64.6471ZM154.244 65.8235H155.421V67H154.244V65.8235ZM154.244 67H155.421V68.1765H154.244V67ZM153.068 67H154.244V68.1765H153.068V67ZM151.892 67H153.068V68.1765H151.892V67ZM150.715 67H151.892V68.1765H150.715V67ZM149.539 67H150.715V68.1765H149.539V67ZM149.539 65.8235H150.715V67H149.539V65.8235ZM149.539 64.6471H150.715V65.8235H149.539V64.6471ZM150.715 64.6471H151.892V65.8235H150.715V64.6471ZM151.892 64.6471H153.068V65.8235H151.892V64.6471ZM153.068 64.6471H154.244V65.8235H153.068V64.6471ZM153.068 65.8235H154.244V67H153.068V65.8235ZM151.892 65.8235H153.068V67H151.892V65.8235ZM150.715 65.8235H151.892V67H150.715V65.8235ZM155.421 63.4706H156.597V64.6471H155.421V63.4706ZM156.597 63.4706H157.774V64.6471H156.597V63.4706ZM157.774 63.4706H158.95V64.6471H157.774V63.4706ZM157.774 64.6471H158.95V65.8235H157.774V64.6471ZM157.774 65.8235H158.95V67H157.774V65.8235ZM157.774 67H158.95V68.1765H157.774V67ZM156.597 67H157.774V68.1765H156.597V67ZM155.421 67H156.597V68.1765H155.421V67ZM155.421 65.8235H156.597V67H155.421V65.8235ZM155.421 64.6471H156.597V65.8235H155.421V64.6471ZM156.597 64.6471H157.774V65.8235H156.597V64.6471ZM156.597 65.8235H157.774V67H156.597V65.8235ZM155.421 82.2941H156.597V83.4706H155.421V82.2941ZM156.597 82.2941H157.774V83.4706H156.597V82.2941ZM157.774 82.2941H158.95V83.4706H157.774V82.2941ZM157.774 83.4706H158.95V84.6471H157.774V83.4706ZM157.774 84.6471H158.95V85.8235H157.774V84.6471ZM157.774 85.8235H158.95V87H157.774V85.8235ZM156.597 85.8235H157.774V87H156.597V85.8235ZM155.421 85.8235H156.597V87H155.421V85.8235ZM155.421 84.6471H156.597V85.8235H155.421V84.6471ZM155.421 83.4706H156.597V84.6471H155.421V83.4706ZM156.597 83.4706H157.774V84.6471H156.597V83.4706ZM156.597 84.6471H157.774V85.8235H156.597V84.6471ZM149.539 74.0588H150.715V75.2353H149.539V74.0588ZM149.539 72.8824H150.715V74.0588H149.539V72.8824ZM149.539 75.2353H150.715V76.4118H149.539V75.2353ZM149.539 76.4118H150.715V77.5882H149.539V76.4118ZM150.715 76.4118H151.892V77.5882H150.715V76.4118ZM151.892 76.4118H153.068V77.5882H151.892V76.4118ZM153.068 76.4118H154.244V77.5882H153.068V76.4118ZM154.244 76.4118H155.421V77.5882H154.244V76.4118ZM154.244 75.2353H155.421V76.4118H154.244V75.2353ZM154.244 74.0588H155.421V75.2353H154.244V74.0588ZM154.244 72.8824H155.421V74.0588H154.244V72.8824ZM153.068 72.8824H154.244V74.0588H153.068V72.8824ZM151.892 72.8824H153.068V74.0588H151.892V72.8824ZM150.715 72.8824H151.892V74.0588H150.715V72.8824ZM150.715 74.0588H151.892V75.2353H150.715V74.0588ZM150.715 75.2353H151.892V76.4118H150.715V75.2353ZM151.892 75.2353H153.068V76.4118H151.892V75.2353ZM153.068 75.2353H154.244V76.4118H153.068V75.2353ZM153.068 74.0588H154.244V75.2353H153.068V74.0588ZM151.892 74.0588H153.068V75.2353H151.892V74.0588ZM155.421 72.8824H156.597V74.0588H155.421V72.8824ZM155.421 74.0588H156.597V75.2353H155.421V74.0588ZM155.421 75.2353H156.597V76.4118H155.421V75.2353ZM155.421 76.4118H156.597V77.5882H155.421V76.4118ZM170.731 85.8235H171.908V87H170.731V85.8235ZM171.908 85.8235H173.084V87H171.908V85.8235ZM173.084 85.8235H174.261V87H173.084V85.8235ZM174.261 85.8235H175.437V87H174.261V85.8235ZM174.261 84.6471H175.437V85.8235H174.261V84.6471ZM173.084 84.6471H174.261V85.8235H173.084V84.6471ZM171.908 84.6471H173.084V85.8235H171.908V84.6471ZM170.731 84.6471H171.908V85.8235H170.731V84.6471ZM170.731 83.4706H171.908V84.6471H170.731V83.4706ZM170.731 82.2941H171.908V83.4706H170.731V82.2941ZM170.731 81.1176H171.908V82.2941H170.731V81.1176ZM170.731 79.9412H171.908V81.1176H170.731V79.9412ZM170.731 78.7647H171.908V79.9412H170.731V78.7647ZM170.731 77.5882H171.908V78.7647H170.731V77.5882ZM170.731 76.4118H171.908V77.5882H170.731V76.4118ZM171.908 76.4118H173.084V77.5882H171.908V76.4118ZM171.908 75.2353H173.084V76.4118H171.908V75.2353ZM171.908 74.0588H173.084V75.2353H171.908V74.0588ZM173.084 74.0588H174.261V75.2353H173.084V74.0588ZM173.084 75.2353H174.261V76.4118H173.084V75.2353ZM174.261 75.2353H175.437V76.4118H174.261V75.2353ZM174.261 76.4118H175.437V77.5882H174.261V76.4118ZM174.261 77.5882H175.437V78.7647H174.261V77.5882ZM174.261 78.7647H175.437V79.9412H174.261V78.7647ZM174.261 79.9412H175.437V81.1176H174.261V79.9412ZM174.261 81.1176H175.437V82.2941H174.261V81.1176ZM174.261 82.2941H175.437V83.4706H174.261V82.2941ZM174.261 83.4706H175.437V84.6471H174.261V83.4706ZM173.084 83.4706H174.261V84.6471H173.084V83.4706ZM173.084 82.2941H174.261V83.4706H173.084V82.2941ZM173.084 81.1176H174.261V82.2941H173.084V81.1176ZM173.084 79.9412H174.261V81.1176H173.084V79.9412ZM173.084 78.7647H174.261V79.9412H173.084V78.7647ZM173.084 77.5882H174.261V78.7647H173.084V77.5882ZM173.084 76.4118H174.261V77.5882H173.084V76.4118ZM171.908 77.5882H173.084V78.7647H171.908V77.5882ZM171.908 78.7647H173.084V79.9412H171.908V78.7647ZM171.908 79.9412H173.084V81.1176H171.908V79.9412ZM171.908 81.1176H173.084V82.2941H171.908V81.1176ZM171.908 82.2941H173.084V83.4706H171.908V82.2941ZM171.908 83.4706H173.084V84.6471H171.908V83.4706ZM170.731 63.4706H171.908V64.6471H170.731V63.4706ZM170.731 64.6471H171.908V65.8235H170.731V64.6471ZM170.731 67H171.908V68.1765H170.731V67ZM170.731 68.1765H171.908V69.3529H170.731V68.1765ZM170.731 69.3529H171.908V70.5294H170.731V69.3529ZM170.731 70.5294H171.908V71.7059H170.731V70.5294ZM170.731 71.7059H171.908V72.8824H170.731V71.7059ZM170.731 72.8824H171.908V74.0588H170.731V72.8824ZM170.731 74.0588H171.908V75.2353H170.731V74.0588ZM170.731 75.2353H171.908V76.4118H170.731V75.2353ZM171.908 70.5294H173.084V71.7059H171.908V70.5294ZM171.908 69.3529H173.084V70.5294H171.908V69.3529ZM171.908 68.1765H173.084V69.3529H171.908V68.1765ZM171.908 67H173.084V68.1765H171.908V67ZM171.908 65.8235H173.084V67H171.908V65.8235ZM170.731 65.8235H171.908V67H170.731V65.8235ZM171.908 63.4706H173.084V64.6471H171.908V63.4706ZM173.084 63.4706H174.261V64.6471H173.084V63.4706ZM173.084 64.6471H174.261V65.8235H173.084V64.6471ZM174.261 65.8235H175.437V67H174.261V65.8235ZM174.261 64.6471H175.437V65.8235H174.261V64.6471ZM174.261 63.4706H175.437V64.6471H174.261V63.4706ZM174.261 67H175.437V68.1765H174.261V67ZM174.261 68.1765H175.437V69.3529H174.261V68.1765ZM174.261 69.3529H175.437V70.5294H174.261V69.3529ZM174.261 70.5294H175.437V71.7059H174.261V70.5294ZM174.261 71.7059H175.437V72.8824H174.261V71.7059ZM174.261 72.8824H175.437V74.0588H174.261V72.8824ZM174.261 74.0588H175.437V75.2353H174.261V74.0588ZM173.084 72.8824H174.261V74.0588H173.084V72.8824ZM173.084 71.7059H174.261V72.8824H173.084V71.7059ZM173.084 70.5294H174.261V71.7059H173.084V70.5294ZM171.908 71.7059H173.084V72.8824H171.908V71.7059ZM171.908 72.8824H173.084V74.0588H171.908V72.8824ZM173.084 69.3529H174.261V70.5294H173.084V69.3529ZM173.084 65.8235H174.261V67H173.084V65.8235ZM173.084 67H174.261V68.1765H173.084V67ZM173.084 68.1765H174.261V69.3529H173.084V68.1765ZM171.908 64.6471H173.084V65.8235H171.908V64.6471ZM175.437 63.4706H176.614V64.6471H175.437V63.4706ZM176.614 63.4706H177.79V64.6471H176.614V63.4706ZM177.79 63.4706H178.966V64.6471H177.79V63.4706ZM178.966 63.4706H180.143V64.6471H178.966V63.4706ZM180.143 63.4706H181.319V64.6471H180.143V63.4706ZM180.143 64.6471H181.319V65.8235H180.143V64.6471ZM180.143 65.8235H181.319V67H180.143V65.8235ZM180.143 67H181.319V68.1765H180.143V67ZM178.966 67H180.143V68.1765H178.966V67ZM177.79 67H178.966V68.1765H177.79V67ZM176.614 67H177.79V68.1765H176.614V67ZM175.437 67H176.614V68.1765H175.437V67ZM175.437 65.8235H176.614V67H175.437V65.8235ZM175.437 64.6471H176.614V65.8235H175.437V64.6471ZM176.614 64.6471H177.79V65.8235H176.614V64.6471ZM177.79 64.6471H178.966V65.8235H177.79V64.6471ZM178.966 64.6471H180.143V65.8235H178.966V64.6471ZM178.966 65.8235H180.143V67H178.966V65.8235ZM177.79 65.8235H178.966V67H177.79V65.8235ZM176.614 65.8235H177.79V67H176.614V65.8235ZM181.319 63.4706H182.496V64.6471H181.319V63.4706ZM182.496 63.4706H183.672V64.6471H182.496V63.4706ZM183.672 63.4706H184.849V64.6471H183.672V63.4706ZM183.672 64.6471H184.849V65.8235H183.672V64.6471ZM183.672 65.8235H184.849V67H183.672V65.8235ZM183.672 67H184.849V68.1765H183.672V67ZM182.496 67H183.672V68.1765H182.496V67ZM181.319 67H182.496V68.1765H181.319V67ZM181.319 65.8235H182.496V67H181.319V65.8235ZM181.319 64.6471H182.496V65.8235H181.319V64.6471ZM182.496 64.6471H183.672V65.8235H182.496V64.6471ZM182.496 65.8235H183.672V67H182.496V65.8235ZM175.437 74.0588H176.614V75.2353H175.437V74.0588ZM175.437 72.8824H176.614V74.0588H175.437V72.8824ZM175.437 75.2353H176.614V76.4118H175.437V75.2353ZM175.437 76.4118H176.614V77.5882H175.437V76.4118ZM176.614 76.4118H177.79V77.5882H176.614V76.4118ZM177.79 76.4118H178.966V77.5882H177.79V76.4118ZM178.966 76.4118H180.143V77.5882H178.966V76.4118ZM180.143 76.4118H181.319V77.5882H180.143V76.4118ZM180.143 75.2353H181.319V76.4118H180.143V75.2353ZM180.143 74.0588H181.319V75.2353H180.143V74.0588ZM180.143 72.8824H181.319V74.0588H180.143V72.8824ZM178.966 72.8824H180.143V74.0588H178.966V72.8824ZM177.79 72.8824H178.966V74.0588H177.79V72.8824ZM176.614 72.8824H177.79V74.0588H176.614V72.8824ZM176.614 74.0588H177.79V75.2353H176.614V74.0588ZM176.614 75.2353H177.79V76.4118H176.614V75.2353ZM177.79 75.2353H178.966V76.4118H177.79V75.2353ZM178.966 75.2353H180.143V76.4118H178.966V75.2353ZM178.966 74.0588H180.143V75.2353H178.966V74.0588ZM177.79 74.0588H178.966V75.2353H177.79V74.0588ZM181.319 72.8824H182.496V74.0588H181.319V72.8824ZM181.319 74.0588H182.496V75.2353H181.319V74.0588ZM181.319 75.2353H182.496V76.4118H181.319V75.2353ZM181.319 76.4118H182.496V77.5882H181.319V76.4118ZM187.216 85.8235H188.392V87H187.216V85.8235ZM188.392 85.8235H189.568V87H188.392V85.8235ZM189.568 85.8235H190.745V87H189.568V85.8235ZM190.745 85.8235H191.921V87H190.745V85.8235ZM190.745 84.6471H191.921V85.8235H190.745V84.6471ZM189.568 84.6471H190.745V85.8235H189.568V84.6471ZM188.392 84.6471H189.568V85.8235H188.392V84.6471ZM187.216 84.6471H188.392V85.8235H187.216V84.6471ZM187.216 83.4706H188.392V84.6471H187.216V83.4706ZM187.216 82.2941H188.392V83.4706H187.216V82.2941ZM187.216 81.1176H188.392V82.2941H187.216V81.1176ZM187.216 79.9412H188.392V81.1176H187.216V79.9412ZM187.216 78.7647H188.392V79.9412H187.216V78.7647ZM187.216 77.5882H188.392V78.7647H187.216V77.5882ZM187.216 76.4118H188.392V77.5882H187.216V76.4118ZM188.392 76.4118H189.568V77.5882H188.392V76.4118ZM188.392 75.2353H189.568V76.4118H188.392V75.2353ZM188.392 74.0588H189.568V75.2353H188.392V74.0588ZM189.568 74.0588H190.745V75.2353H189.568V74.0588ZM189.568 75.2353H190.745V76.4118H189.568V75.2353ZM190.745 75.2353H191.921V76.4118H190.745V75.2353ZM190.745 76.4118H191.921V77.5882H190.745V76.4118ZM190.745 77.5882H191.921V78.7647H190.745V77.5882ZM190.745 78.7647H191.921V79.9412H190.745V78.7647ZM190.745 79.9412H191.921V81.1176H190.745V79.9412ZM190.745 81.1176H191.921V82.2941H190.745V81.1176ZM190.745 82.2941H191.921V83.4706H190.745V82.2941ZM190.745 83.4706H191.921V84.6471H190.745V83.4706ZM189.568 83.4706H190.745V84.6471H189.568V83.4706ZM189.568 82.2941H190.745V83.4706H189.568V82.2941ZM189.568 81.1176H190.745V82.2941H189.568V81.1176ZM189.568 79.9412H190.745V81.1176H189.568V79.9412ZM189.568 78.7647H190.745V79.9412H189.568V78.7647ZM189.568 77.5882H190.745V78.7647H189.568V77.5882ZM189.568 76.4118H190.745V77.5882H189.568V76.4118ZM188.392 77.5882H189.568V78.7647H188.392V77.5882ZM188.392 78.7647H189.568V79.9412H188.392V78.7647ZM188.392 79.9412H189.568V81.1176H188.392V79.9412ZM188.392 81.1176H189.568V82.2941H188.392V81.1176ZM188.392 82.2941H189.568V83.4706H188.392V82.2941ZM188.392 83.4706H189.568V84.6471H188.392V83.4706ZM187.216 63.4706H188.392V64.6471H187.216V63.4706ZM187.216 64.6471H188.392V65.8235H187.216V64.6471ZM187.216 67H188.392V68.1765H187.216V67ZM187.216 68.1765H188.392V69.3529H187.216V68.1765ZM187.216 69.3529H188.392V70.5294H187.216V69.3529ZM187.216 70.5294H188.392V71.7059H187.216V70.5294ZM187.216 71.7059H188.392V72.8824H187.216V71.7059ZM187.216 72.8824H188.392V74.0588H187.216V72.8824ZM187.216 74.0588H188.392V75.2353H187.216V74.0588ZM187.216 75.2353H188.392V76.4118H187.216V75.2353ZM188.392 70.5294H189.568V71.7059H188.392V70.5294ZM188.392 69.3529H189.568V70.5294H188.392V69.3529ZM188.392 68.1765H189.568V69.3529H188.392V68.1765ZM188.392 67H189.568V68.1765H188.392V67ZM188.392 65.8235H189.568V67H188.392V65.8235ZM187.216 65.8235H188.392V67H187.216V65.8235ZM188.392 63.4706H189.568V64.6471H188.392V63.4706ZM189.568 63.4706H190.745V64.6471H189.568V63.4706ZM189.568 64.6471H190.745V65.8235H189.568V64.6471ZM190.745 65.8235H191.921V67H190.745V65.8235ZM190.745 64.6471H191.921V65.8235H190.745V64.6471ZM190.745 63.4706H191.921V64.6471H190.745V63.4706ZM190.745 67H191.921V68.1765H190.745V67ZM190.745 68.1765H191.921V69.3529H190.745V68.1765ZM190.745 69.3529H191.921V70.5294H190.745V69.3529ZM190.745 70.5294H191.921V71.7059H190.745V70.5294ZM190.745 71.7059H191.921V72.8824H190.745V71.7059ZM190.745 72.8824H191.921V74.0588H190.745V72.8824ZM190.745 74.0588H191.921V75.2353H190.745V74.0588ZM189.568 72.8824H190.745V74.0588H189.568V72.8824ZM189.568 71.7059H190.745V72.8824H189.568V71.7059ZM189.568 70.5294H190.745V71.7059H189.568V70.5294ZM188.392 71.7059H189.568V72.8824H188.392V71.7059ZM188.392 72.8824H189.568V74.0588H188.392V72.8824ZM189.568 69.3529H190.745V70.5294H189.568V69.3529ZM189.568 65.8235H190.745V67H189.568V65.8235ZM189.568 67H190.745V68.1765H189.568V67ZM189.568 68.1765H190.745V69.3529H189.568V68.1765ZM188.392 64.6471H189.568V65.8235H188.392V64.6471ZM191.921 85.8235H193.098V87H191.921V85.8235ZM191.921 84.6471H193.098V85.8235H191.921V84.6471ZM191.921 83.4706H193.098V84.6471H191.921V83.4706ZM191.921 82.2941H193.098V83.4706H191.921V82.2941ZM193.098 82.2941H194.274V83.4706H193.098V82.2941ZM194.274 82.2941H195.451V83.4706H194.274V82.2941ZM195.451 82.2941H196.627V83.4706H195.451V82.2941ZM196.627 82.2941H197.804V83.4706H196.627V82.2941ZM196.627 84.6471H197.804V85.8235H196.627V84.6471ZM195.451 84.6471H196.627V85.8235H195.451V84.6471ZM194.274 84.6471H195.451V85.8235H194.274V84.6471ZM193.098 84.6471H194.274V85.8235H193.098V84.6471ZM193.098 83.4706H194.274V84.6471H193.098V83.4706ZM194.274 83.4706H195.451V84.6471H194.274V83.4706ZM195.451 83.4706H196.627V84.6471H195.451V83.4706ZM196.627 83.4706H197.804V84.6471H196.627V83.4706ZM196.627 85.8235H197.804V87H196.627V85.8235ZM195.451 85.8235H196.627V87H195.451V85.8235ZM194.274 85.8235H195.451V87H194.274V85.8235ZM193.098 85.8235H194.274V87H193.098V85.8235ZM191.921 63.4706H193.098V64.6471H191.921V63.4706ZM193.098 63.4706H194.274V64.6471H193.098V63.4706ZM194.274 63.4706H195.451V64.6471H194.274V63.4706ZM195.451 63.4706H196.627V64.6471H195.451V63.4706ZM196.627 63.4706H197.804V64.6471H196.627V63.4706ZM196.627 64.6471H197.804V65.8235H196.627V64.6471ZM196.627 65.8235H197.804V67H196.627V65.8235ZM196.627 67H197.804V68.1765H196.627V67ZM195.451 67H196.627V68.1765H195.451V67ZM194.274 67H195.451V68.1765H194.274V67ZM193.098 67H194.274V68.1765H193.098V67ZM191.921 67H193.098V68.1765H191.921V67ZM191.921 65.8235H193.098V67H191.921V65.8235ZM191.921 64.6471H193.098V65.8235H191.921V64.6471ZM193.098 64.6471H194.274V65.8235H193.098V64.6471ZM194.274 64.6471H195.451V65.8235H194.274V64.6471ZM195.451 64.6471H196.627V65.8235H195.451V64.6471ZM195.451 65.8235H196.627V67H195.451V65.8235ZM194.274 65.8235H195.451V67H194.274V65.8235ZM193.098 65.8235H194.274V67H193.098V65.8235ZM197.804 63.4706H198.98V64.6471H197.804V63.4706ZM198.98 63.4706H200.157V64.6471H198.98V63.4706ZM200.157 63.4706H201.333V64.6471H200.157V63.4706ZM200.157 64.6471H201.333V65.8235H200.157V64.6471ZM200.157 65.8235H201.333V67H200.157V65.8235ZM200.157 67H201.333V68.1765H200.157V67ZM198.98 67H200.157V68.1765H198.98V67ZM197.804 67H198.98V68.1765H197.804V67ZM197.804 65.8235H198.98V67H197.804V65.8235ZM197.804 64.6471H198.98V65.8235H197.804V64.6471ZM198.98 64.6471H200.157V65.8235H198.98V64.6471ZM198.98 65.8235H200.157V67H198.98V65.8235ZM197.804 82.2941H198.98V83.4706H197.804V82.2941ZM198.98 82.2941H200.157V83.4706H198.98V82.2941ZM200.157 82.2941H201.333V83.4706H200.157V82.2941ZM200.157 83.4706H201.333V84.6471H200.157V83.4706ZM200.157 84.6471H201.333V85.8235H200.157V84.6471ZM200.157 85.8235H201.333V87H200.157V85.8235ZM198.98 85.8235H200.157V87H198.98V85.8235ZM197.804 85.8235H198.98V87H197.804V85.8235ZM197.804 84.6471H198.98V85.8235H197.804V84.6471ZM197.804 83.4706H198.98V84.6471H197.804V83.4706ZM198.98 83.4706H200.157V84.6471H198.98V83.4706ZM198.98 84.6471H200.157V85.8235H198.98V84.6471ZM191.921 74.0588H193.098V75.2353H191.921V74.0588ZM191.921 72.8824H193.098V74.0588H191.921V72.8824ZM191.921 75.2353H193.098V76.4118H191.921V75.2353ZM191.921 76.4118H193.098V77.5882H191.921V76.4118ZM193.098 76.4118H194.274V77.5882H193.098V76.4118ZM194.274 76.4118H195.451V77.5882H194.274V76.4118ZM195.451 76.4118H196.627V77.5882H195.451V76.4118ZM196.627 76.4118H197.804V77.5882H196.627V76.4118ZM196.627 75.2353H197.804V76.4118H196.627V75.2353ZM196.627 74.0588H197.804V75.2353H196.627V74.0588ZM196.627 72.8824H197.804V74.0588H196.627V72.8824ZM195.451 72.8824H196.627V74.0588H195.451V72.8824ZM194.274 72.8824H195.451V74.0588H194.274V72.8824ZM193.098 72.8824H194.274V74.0588H193.098V72.8824ZM193.098 74.0588H194.274V75.2353H193.098V74.0588ZM193.098 75.2353H194.274V76.4118H193.098V75.2353ZM194.274 75.2353H195.451V76.4118H194.274V75.2353ZM195.451 75.2353H196.627V76.4118H195.451V75.2353ZM195.451 74.0588H196.627V75.2353H195.451V74.0588ZM194.274 74.0588H195.451V75.2353H194.274V74.0588ZM197.804 72.8824H198.98V74.0588H197.804V72.8824ZM197.804 74.0588H198.98V75.2353H197.804V74.0588ZM197.804 75.2353H198.98V76.4118H197.804V75.2353ZM197.804 76.4118H198.98V77.5882H197.804V76.4118ZM220.166 69.3529H221.342V70.5294H220.166V69.3529ZM218.989 69.3529H220.166V70.5294H218.989V69.3529ZM217.813 69.3529H218.989V70.5294H217.813V69.3529ZM216.636 69.3529H217.813V70.5294H216.636V69.3529ZM216.636 68.1765H217.813V69.3529H216.636V68.1765ZM215.46 68.1765H216.636V69.3529H215.46V68.1765ZM217.813 68.1765H218.989V69.3529H217.813V68.1765ZM218.989 68.1765H220.166V69.3529H218.989V68.1765ZM220.166 68.1765H221.342V69.3529H220.166V68.1765ZM220.166 67H221.342V68.1765H220.166V67ZM218.989 67H220.166V68.1765H218.989V67ZM217.813 67H218.989V68.1765H217.813V67ZM217.813 65.8235H218.989V67H217.813V65.8235ZM218.989 65.8235H220.166V67H218.989V65.8235ZM217.813 64.6471H218.989V65.8235H217.813V64.6471ZM216.636 64.6471H217.813V65.8235H216.636V64.6471ZM216.636 65.8235H217.813V67H216.636V65.8235ZM218.989 64.6471H220.166V65.8235H218.989V64.6471ZM215.46 65.8235H216.636V67H215.46V65.8235ZM214.284 67H215.46V68.1765H214.284V67ZM213.107 67H214.284V68.1765H213.107V67ZM215.46 67H216.636V68.1765H215.46V67ZM216.636 67H217.813V68.1765H216.636V67ZM216.636 63.4706H217.813V64.6471H216.636V63.4706ZM215.46 63.4706H216.636V64.6471H215.46V63.4706ZM214.284 63.4706H215.46V64.6471H214.284V63.4706ZM213.107 63.4706H214.284V64.6471H213.107V63.4706ZM211.931 63.4706H213.107V64.6471H211.931V63.4706ZM210.754 63.4706H211.931V64.6471H210.754V63.4706ZM209.578 63.4706H210.754V64.6471H209.578V63.4706ZM208.401 63.4706H209.578V64.6471H208.401V63.4706ZM208.401 64.6471H209.578V65.8235H208.401V64.6471ZM207.225 64.6471H208.401V65.8235H207.225V64.6471ZM206.048 64.6471H207.225V65.8235H206.048V64.6471ZM206.048 65.8235H207.225V67H206.048V65.8235ZM207.225 65.8235H208.401V67H207.225V65.8235ZM208.401 65.8235H209.578V67H208.401V65.8235ZM209.578 65.8235H210.754V67H209.578V65.8235ZM210.754 65.8235H211.931V67H210.754V65.8235ZM211.931 65.8235H213.107V67H211.931V65.8235ZM213.107 65.8235H214.284V67H213.107V65.8235ZM214.284 65.8235H215.46V67H214.284V65.8235ZM215.46 64.6471H216.636V65.8235H215.46V64.6471ZM214.284 64.6471H215.46V65.8235H214.284V64.6471ZM213.107 64.6471H214.284V65.8235H213.107V64.6471ZM211.931 64.6471H213.107V65.8235H211.931V64.6471ZM210.754 64.6471H211.931V65.8235H210.754V64.6471ZM209.578 64.6471H210.754V65.8235H209.578V64.6471ZM206.048 67H207.225V68.1765H206.048V67ZM204.872 67H206.048V68.1765H204.872V67ZM207.225 67H208.401V68.1765H207.225V67ZM208.401 67H209.578V68.1765H208.401V67ZM209.578 67H210.754V68.1765H209.578V67ZM210.754 67H211.931V68.1765H210.754V67ZM211.931 67H213.107V68.1765H211.931V67ZM208.401 68.1765H209.578V69.3529H208.401V68.1765ZM209.578 68.1765H210.754V69.3529H209.578V68.1765ZM207.225 68.1765H208.401V69.3529H207.225V68.1765ZM206.048 68.1765H207.225V69.3529H206.048V68.1765ZM204.872 68.1765H206.048V69.3529H204.872V68.1765ZM204.872 69.3529H206.048V70.5294H204.872V69.3529ZM204.872 70.5294H206.048V71.7059H204.872V70.5294ZM204.872 71.7059H206.048V72.8824H204.872V71.7059ZM204.872 72.8824H206.048V74.0588H204.872V72.8824ZM206.048 71.7059H207.225V72.8824H206.048V71.7059ZM206.048 70.5294H207.225V71.7059H206.048V70.5294ZM206.048 69.3529H207.225V70.5294H206.048V69.3529ZM207.225 69.3529H208.401V70.5294H207.225V69.3529ZM207.225 70.5294H208.401V71.7059H207.225V70.5294ZM207.225 71.7059H208.401V72.8824H207.225V71.7059ZM208.401 71.7059H209.578V72.8824H208.401V71.7059ZM208.401 70.5294H209.578V71.7059H208.401V70.5294ZM208.401 69.3529H209.578V70.5294H208.401V69.3529ZM206.048 72.8824H207.225V74.0588H206.048V72.8824ZM206.048 74.0588H207.225V75.2353H206.048V74.0588ZM206.048 75.2353H207.225V76.4118H206.048V75.2353ZM207.225 75.2353H208.401V76.4118H207.225V75.2353ZM208.401 75.2353H209.578V76.4118H208.401V75.2353ZM208.401 74.0588H209.578V75.2353H208.401V74.0588ZM207.225 74.0588H208.401V75.2353H207.225V74.0588ZM207.225 72.8824H208.401V74.0588H207.225V72.8824ZM208.401 72.8824H209.578V74.0588H208.401V72.8824ZM209.578 71.7059H210.754V72.8824H209.578V71.7059ZM209.578 72.8824H210.754V74.0588H209.578V72.8824ZM209.578 74.0588H210.754V75.2353H209.578V74.0588ZM209.578 75.2353H210.754V76.4118H209.578V75.2353ZM208.401 76.4118H209.578V77.5882H208.401V76.4118ZM209.578 76.4118H210.754V77.5882H209.578V76.4118ZM210.754 76.4118H211.931V77.5882H210.754V76.4118ZM211.931 76.4118H213.107V77.5882H211.931V76.4118ZM213.107 76.4118H214.284V77.5882H213.107V76.4118ZM214.284 76.4118H215.46V77.5882H214.284V76.4118ZM214.284 75.2353H215.46V76.4118H214.284V75.2353ZM214.284 74.0588H215.46V75.2353H214.284V74.0588ZM213.107 72.8824H214.284V74.0588H213.107V72.8824ZM211.931 72.8824H213.107V74.0588H211.931V72.8824ZM210.754 72.8824H211.931V74.0588H210.754V72.8824ZM210.754 74.0588H211.931V75.2353H210.754V74.0588ZM211.931 74.0588H213.107V75.2353H211.931V74.0588ZM211.931 75.2353H213.107V76.4118H211.931V75.2353ZM213.107 75.2353H214.284V76.4118H213.107V75.2353ZM213.107 74.0588H214.284V75.2353H213.107V74.0588ZM210.754 75.2353H211.931V76.4118H210.754V75.2353ZM214.284 72.8824H215.46V74.0588H214.284V72.8824ZM215.46 72.8824H216.636V74.0588H215.46V72.8824ZM216.636 72.8824H217.813V74.0588H216.636V72.8824ZM216.636 74.0588H217.813V75.2353H216.636V74.0588ZM216.636 75.2353H217.813V76.4118H216.636V75.2353ZM215.46 75.2353H216.636V76.4118H215.46V75.2353ZM215.46 74.0588H216.636V75.2353H215.46V74.0588ZM217.813 75.2353H218.989V76.4118H217.813V75.2353ZM218.989 75.2353H220.166V76.4118H218.989V75.2353ZM218.989 74.0588H220.166V75.2353H218.989V74.0588ZM217.813 74.0588H218.989V75.2353H217.813V74.0588ZM216.636 76.4118H217.813V77.5882H216.636V76.4118ZM216.636 77.5882H217.813V78.7647H216.636V77.5882ZM215.46 77.5882H216.636V78.7647H215.46V77.5882ZM215.46 76.4118H216.636V77.5882H215.46V76.4118ZM217.813 77.5882H218.989V78.7647H217.813V77.5882ZM218.989 77.5882H220.166V78.7647H218.989V77.5882ZM218.989 76.4118H220.166V77.5882H218.989V76.4118ZM217.813 76.4118H218.989V77.5882H217.813V76.4118ZM220.166 76.4118H221.342V77.5882H220.166V76.4118ZM220.166 77.5882H221.342V78.7647H220.166V77.5882ZM220.166 78.7647H221.342V79.9412H220.166V78.7647ZM220.166 79.9412H221.342V81.1176H220.166V79.9412ZM218.989 79.9412H220.166V81.1176H218.989V79.9412ZM217.813 79.9412H218.989V81.1176H217.813V79.9412ZM217.813 78.7647H218.989V79.9412H217.813V78.7647ZM216.636 78.7647H217.813V79.9412H216.636V78.7647ZM216.636 79.9412H217.813V81.1176H216.636V79.9412ZM218.989 78.7647H220.166V79.9412H218.989V78.7647ZM220.166 81.1176H221.342V82.2941H220.166V81.1176ZM220.166 82.2941H221.342V83.4706H220.166V82.2941ZM218.989 82.2941H220.166V83.4706H218.989V82.2941ZM218.989 83.4706H220.166V84.6471H218.989V83.4706ZM218.989 84.6471H220.166V85.8235H218.989V84.6471ZM217.813 84.6471H218.989V85.8235H217.813V84.6471ZM216.636 84.6471H217.813V85.8235H216.636V84.6471ZM217.813 83.4706H218.989V84.6471H217.813V83.4706ZM217.813 82.2941H218.989V83.4706H217.813V82.2941ZM218.989 81.1176H220.166V82.2941H218.989V81.1176ZM217.813 81.1176H218.989V82.2941H217.813V81.1176ZM216.636 81.1176H217.813V82.2941H216.636V81.1176ZM215.46 81.1176H216.636V82.2941H215.46V81.1176ZM215.46 82.2941H216.636V83.4706H215.46V82.2941ZM216.636 83.4706H217.813V84.6471H216.636V83.4706ZM216.636 82.2941H217.813V83.4706H216.636V82.2941ZM215.46 83.4706H216.636V84.6471H215.46V83.4706ZM215.46 84.6471H216.636V85.8235H215.46V84.6471ZM216.636 85.8235H217.813V87H216.636V85.8235ZM215.46 85.8235H216.636V87H215.46V85.8235ZM214.284 85.8235H215.46V87H214.284V85.8235ZM213.107 85.8235H214.284V87H213.107V85.8235ZM211.931 85.8235H213.107V87H211.931V85.8235ZM210.754 85.8235H211.931V87H210.754V85.8235ZM209.578 85.8235H210.754V87H209.578V85.8235ZM209.578 84.6471H210.754V85.8235H209.578V84.6471ZM208.401 84.6471H209.578V85.8235H208.401V84.6471ZM208.401 85.8235H209.578V87H208.401V85.8235ZM207.225 84.6471H208.401V85.8235H207.225V84.6471ZM206.048 84.6471H207.225V85.8235H206.048V84.6471ZM206.048 83.4706H207.225V84.6471H206.048V83.4706ZM207.225 83.4706H208.401V84.6471H207.225V83.4706ZM206.048 82.2941H207.225V83.4706H206.048V82.2941ZM204.872 82.2941H206.048V83.4706H204.872V82.2941ZM204.872 81.1176H206.048V82.2941H204.872V81.1176ZM204.872 79.9412H206.048V81.1176H204.872V79.9412ZM206.048 79.9412H207.225V81.1176H206.048V79.9412ZM207.225 79.9412H208.401V81.1176H207.225V79.9412ZM208.401 79.9412H209.578V81.1176H208.401V79.9412ZM208.401 81.1176H209.578V82.2941H208.401V81.1176ZM209.578 81.1176H210.754V82.2941H209.578V81.1176ZM209.578 82.2941H210.754V83.4706H209.578V82.2941ZM210.754 82.2941H211.931V83.4706H210.754V82.2941ZM211.931 82.2941H213.107V83.4706H211.931V82.2941ZM213.107 82.2941H214.284V83.4706H213.107V82.2941ZM214.284 83.4706H215.46V84.6471H214.284V83.4706ZM214.284 82.2941H215.46V83.4706H214.284V82.2941ZM214.284 84.6471H215.46V85.8235H214.284V84.6471ZM213.107 84.6471H214.284V85.8235H213.107V84.6471ZM211.931 84.6471H213.107V85.8235H211.931V84.6471ZM210.754 84.6471H211.931V85.8235H210.754V84.6471ZM208.401 83.4706H209.578V84.6471H208.401V83.4706ZM209.578 83.4706H210.754V84.6471H209.578V83.4706ZM210.754 83.4706H211.931V84.6471H210.754V83.4706ZM211.931 83.4706H213.107V84.6471H211.931V83.4706ZM213.107 83.4706H214.284V84.6471H213.107V83.4706ZM208.401 82.2941H209.578V83.4706H208.401V82.2941ZM207.225 82.2941H208.401V83.4706H207.225V82.2941ZM207.225 81.1176H208.401V82.2941H207.225V81.1176ZM206.048 81.1176H207.225V82.2941H206.048V81.1176ZM229.578 85.8235H230.754V87H229.578V85.8235ZM230.754 85.8235H231.931V87H230.754V85.8235ZM231.931 85.8235H233.107V87H231.931V85.8235ZM233.107 85.8235H234.284V87H233.107V85.8235ZM233.107 84.6471H234.284V85.8235H233.107V84.6471ZM231.931 84.6471H233.107V85.8235H231.931V84.6471ZM230.754 84.6471H231.931V85.8235H230.754V84.6471ZM229.578 84.6471H230.754V85.8235H229.578V84.6471ZM229.578 83.4706H230.754V84.6471H229.578V83.4706ZM229.578 82.2941H230.754V83.4706H229.578V82.2941ZM229.578 81.1176H230.754V82.2941H229.578V81.1176ZM229.578 79.9412H230.754V81.1176H229.578V79.9412ZM229.578 78.7647H230.754V79.9412H229.578V78.7647ZM229.578 77.5882H230.754V78.7647H229.578V77.5882ZM229.578 76.4118H230.754V77.5882H229.578V76.4118ZM230.754 76.4118H231.931V77.5882H230.754V76.4118ZM230.754 75.2353H231.931V76.4118H230.754V75.2353ZM230.754 74.0588H231.931V75.2353H230.754V74.0588ZM231.931 74.0588H233.107V75.2353H231.931V74.0588ZM231.931 75.2353H233.107V76.4118H231.931V75.2353ZM233.107 75.2353H234.284V76.4118H233.107V75.2353ZM233.107 76.4118H234.284V77.5882H233.107V76.4118ZM233.107 77.5882H234.284V78.7647H233.107V77.5882ZM233.107 78.7647H234.284V79.9412H233.107V78.7647ZM233.107 79.9412H234.284V81.1176H233.107V79.9412ZM233.107 81.1176H234.284V82.2941H233.107V81.1176ZM233.107 82.2941H234.284V83.4706H233.107V82.2941ZM233.107 83.4706H234.284V84.6471H233.107V83.4706ZM231.931 83.4706H233.107V84.6471H231.931V83.4706ZM231.931 82.2941H233.107V83.4706H231.931V82.2941ZM231.931 81.1176H233.107V82.2941H231.931V81.1176ZM231.931 79.9412H233.107V81.1176H231.931V79.9412ZM231.931 78.7647H233.107V79.9412H231.931V78.7647ZM231.931 77.5882H233.107V78.7647H231.931V77.5882ZM231.931 76.4118H233.107V77.5882H231.931V76.4118ZM230.754 77.5882H231.931V78.7647H230.754V77.5882ZM230.754 78.7647H231.931V79.9412H230.754V78.7647ZM230.754 79.9412H231.931V81.1176H230.754V79.9412ZM230.754 81.1176H231.931V82.2941H230.754V81.1176ZM230.754 82.2941H231.931V83.4706H230.754V82.2941ZM230.754 83.4706H231.931V84.6471H230.754V83.4706ZM229.578 63.4706H230.754V64.6471H229.578V63.4706ZM229.578 64.6471H230.754V65.8235H229.578V64.6471ZM229.578 67H230.754V68.1765H229.578V67ZM229.578 68.1765H230.754V69.3529H229.578V68.1765ZM229.578 69.3529H230.754V70.5294H229.578V69.3529ZM229.578 70.5294H230.754V71.7059H229.578V70.5294ZM229.578 71.7059H230.754V72.8824H229.578V71.7059ZM229.578 72.8824H230.754V74.0588H229.578V72.8824ZM229.578 74.0588H230.754V75.2353H229.578V74.0588ZM229.578 75.2353H230.754V76.4118H229.578V75.2353ZM230.754 70.5294H231.931V71.7059H230.754V70.5294ZM230.754 69.3529H231.931V70.5294H230.754V69.3529ZM230.754 68.1765H231.931V69.3529H230.754V68.1765ZM230.754 67H231.931V68.1765H230.754V67ZM230.754 65.8235H231.931V67H230.754V65.8235ZM229.578 65.8235H230.754V67H229.578V65.8235ZM230.754 63.4706H231.931V64.6471H230.754V63.4706ZM231.931 63.4706H233.107V64.6471H231.931V63.4706ZM231.931 64.6471H233.107V65.8235H231.931V64.6471ZM233.107 65.8235H234.284V67H233.107V65.8235ZM233.107 64.6471H234.284V65.8235H233.107V64.6471ZM233.107 63.4706H234.284V64.6471H233.107V63.4706ZM233.107 67H234.284V68.1765H233.107V67ZM233.107 68.1765H234.284V69.3529H233.107V68.1765ZM233.107 69.3529H234.284V70.5294H233.107V69.3529ZM233.107 70.5294H234.284V71.7059H233.107V70.5294ZM233.107 71.7059H234.284V72.8824H233.107V71.7059ZM233.107 72.8824H234.284V74.0588H233.107V72.8824ZM233.107 74.0588H234.284V75.2353H233.107V74.0588ZM231.931 72.8824H233.107V74.0588H231.931V72.8824ZM231.931 71.7059H233.107V72.8824H231.931V71.7059ZM231.931 70.5294H233.107V71.7059H231.931V70.5294ZM230.754 71.7059H231.931V72.8824H230.754V71.7059ZM230.754 72.8824H231.931V74.0588H230.754V72.8824ZM231.931 69.3529H233.107V70.5294H231.931V69.3529ZM231.931 65.8235H233.107V67H231.931V65.8235ZM231.931 67H233.107V68.1765H231.931V67ZM231.931 68.1765H233.107V69.3529H231.931V68.1765ZM230.754 64.6471H231.931V65.8235H230.754V64.6471ZM234.284 63.4706H235.46V64.6471H234.284V63.4706ZM234.284 64.6471H235.46V65.8235H234.284V64.6471ZM234.284 65.8235H235.46V67H234.284V65.8235ZM234.284 67H235.46V68.1765H234.284V67ZM235.46 67H236.636V68.1765H235.46V67ZM236.636 67H237.813V68.1765H236.636V67ZM237.813 67H238.989V68.1765H237.813V67ZM237.813 65.8235H238.989V67H237.813V65.8235ZM237.813 64.6471H238.989V65.8235H237.813V64.6471ZM237.813 63.4706H238.989V64.6471H237.813V63.4706ZM236.636 63.4706H237.813V64.6471H236.636V63.4706ZM235.46 63.4706H236.636V64.6471H235.46V63.4706ZM235.46 64.6471H236.636V65.8235H235.46V64.6471ZM236.636 64.6471H237.813V65.8235H236.636V64.6471ZM236.636 65.8235H237.813V67H236.636V65.8235ZM235.46 65.8235H236.636V67H235.46V65.8235ZM228.401 63.4706H229.578V64.6471H228.401V63.4706ZM227.225 63.4706H228.401V64.6471H227.225V63.4706ZM226.048 63.4706H227.225V64.6471H226.048V63.4706ZM224.872 63.4706H226.048V64.6471H224.872V63.4706ZM224.872 64.6471H226.048V65.8235H224.872V64.6471ZM224.872 65.8235H226.048V67H224.872V65.8235ZM226.048 65.8235H227.225V67H226.048V65.8235ZM227.225 67H228.401V68.1765H227.225V67ZM226.048 67H227.225V68.1765H226.048V67ZM224.872 67H226.048V68.1765H224.872V67ZM228.401 67H229.578V68.1765H228.401V67ZM228.401 65.8235H229.578V67H228.401V65.8235ZM228.401 64.6471H229.578V65.8235H228.401V64.6471ZM227.225 64.6471H228.401V65.8235H227.225V64.6471ZM227.225 65.8235H228.401V67H227.225V65.8235ZM226.048 64.6471H227.225V65.8235H226.048V64.6471Z" fill="white"/>
</svg>
