<?xml version="1.0" standalone="no"?>
<!DOCTYPE svg PUBLIC "-//W3C//DTD SVG 20010904//EN"
 "http://www.w3.org/TR/2001/REC-SVG-20010904/DTD/svg10.dtd">
<svg version="1.0" xmlns="http://www.w3.org/2000/svg"
 width="300.000000pt" height="300.000000pt" viewBox="0 0 300.000000 300.000000"
 preserveAspectRatio="xMidYMid meet">

<g transform="translate(0.000000,300.000000) scale(0.100000,-0.100000)"
fill="#000000" stroke="none">
<path d="M140 2530 l0 -330 330 0 330 0 0 330 0 330 -330 0 -330 0 0 -330z
m565 0 l0 -235 -235 0 -235 0 -3 225 c-1 123 0 230 3 237 3 11 54 13 237 11
l233 -3 0 -235z"/>
<path d="M330 2530 l0 -140 140 0 140 0 0 140 0 140 -140 0 -140 0 0 -140z"/>
<path d="M990 2815 l0 -45 -45 0 -45 0 0 -95 0 -95 45 0 45 0 0 45 0 45 50 0
50 0 0 -95 0 -95 -50 0 -50 0 0 -45 0 -45 50 0 50 0 0 45 0 45 45 0 45 0 0
145 0 145 95 0 95 0 0 45 0 45 -95 0 -95 0 0 -45 0 -45 -45 0 -45 0 0 45 0 45
-50 0 -50 0 0 -45z"/>
<path d="M1560 2816 l0 -45 48 -3 47 -3 3 -47 3 -48 140 0 139 0 0 95 0 95
-45 0 -45 0 0 -45 0 -45 -50 0 -50 0 0 45 0 45 -95 0 -95 0 0 -44z"/>
<path d="M2040 2765 l0 -95 45 0 45 0 0 95 0 95 -45 0 -45 0 0 -95z"/>
<path d="M2230 2530 l0 -330 330 0 330 0 0 330 0 330 -330 0 -330 0 0 -330z
m565 0 l0 -235 -235 0 -235 0 -3 225 c-1 123 0 230 3 237 3 11 54 13 237 11
l233 -3 0 -235z"/>
<path d="M2420 2530 l0 -140 140 0 140 0 0 140 0 140 -140 0 -140 0 0 -140z"/>
<path d="M1370 2625 l0 -45 -45 0 -45 0 0 -95 0 -95 -50 0 -50 0 0 -50 0 -50
-45 0 -45 0 0 -45 0 -45 45 0 45 0 0 -50 0 -50 -95 0 -95 0 0 -45 0 -45 95 0
95 0 0 45 0 45 50 0 50 0 0 50 0 50 45 0 45 0 0 -50 0 -50 50 0 50 0 0 50 0
50 45 0 45 0 0 -95 0 -95 50 0 50 0 0 95 0 95 45 0 45 0 0 95 0 95 -45 0 -45
0 0 95 0 95 -50 0 -50 0 0 -95 0 -95 -45 0 -45 0 0 44 0 45 -47 3 -48 3 -3 48
-3 47 50 0 51 0 0 45 0 45 -50 0 -50 0 0 -45z m100 -330 l0 -95 -50 0 -50 0 0
45 0 45 -45 0 -45 0 0 -45 0 -45 -50 0 -50 0 0 45 0 45 50 0 50 0 0 50 0 50
95 0 95 0 0 -95z m190 -50 l0 -45 -50 0 -50 0 0 45 0 45 50 0 50 0 0 -45z"/>
<path d="M1940 2485 l0 -95 -45 0 -44 0 -3 -142 -3 -143 -47 -3 -48 -3 0 -95
0 -94 50 0 50 0 0 50 0 50 45 0 45 0 0 45 0 45 50 0 50 0 0 -45 0 -45 45 0 45
0 0 -95 0 -95 -45 0 -45 0 0 45 0 45 -50 0 -50 0 0 -45 0 -45 51 0 50 0 -3
-47 -3 -48 -47 -3 -48 -3 0 -95 0 -95 -92 3 -93 3 -3 143 -3 142 -44 0 -45 0
0 45 0 45 -50 0 -50 0 0 -45 0 -45 -140 0 -140 0 0 45 0 45 95 0 95 0 0 50 0
50 -95 0 -95 0 0 -50 0 -50 -145 0 -145 0 0 -95 0 -95 50 0 50 0 0 -45 0 -45
45 0 45 0 0 45 0 45 145 0 146 0 -3 -92 -3 -93 -237 -3 -238 -2 0 50 0 50 -95
0 -95 0 0 45 0 45 50 0 50 0 0 50 0 50 -50 0 -50 0 0 45 0 45 -45 0 -45 0 0
-45 0 -45 45 0 45 0 0 -50 0 -50 -140 0 -140 0 0 -45 0 -45 45 0 45 0 0 -50 0
-50 -191 0 -190 0 3 48 3 47 48 3 47 3 0 45 0 44 44 0 45 0 3 48 3 47 48 3 47
3 0 45 0 44 45 0 45 0 0 50 0 50 145 0 145 0 0 45 0 45 -145 0 -145 0 0 -45 0
-45 -45 0 -45 0 0 45 0 45 -50 0 -50 0 0 -45 0 -45 -95 0 -95 0 0 -50 0 -50
50 0 50 0 0 -96 0 -95 -48 3 -47 3 -3 48 -3 47 -45 0 -44 0 0 -145 0 -145 45
0 45 0 0 -45 0 -45 -45 0 -45 0 0 -50 0 -50 45 0 45 0 0 -140 0 -140 -45 0
-45 0 0 -50 0 -50 45 0 45 0 0 50 0 50 285 0 285 0 0 -50 0 -50 -45 0 -45 0 0
-45 0 -45 45 0 45 0 0 45 0 45 50 0 50 0 0 -45 0 -45 45 0 45 0 0 -50 0 -50
-45 0 -45 0 0 -95 0 -95 44 0 45 0 3 48 3 47 48 3 47 3 0 45 0 44 45 0 45 0 0
-45 0 -45 285 0 285 0 0 -50 0 -50 50 0 50 0 0 95 0 94 -142 3 -143 3 -3 48
-3 47 -45 0 -44 0 0 45 0 45 45 0 45 0 0 95 0 95 -45 0 -45 0 0 50 0 50 45 0
45 0 0 45 0 45 50 0 50 0 0 -235 0 -235 95 0 95 0 0 45 0 45 45 0 45 0 0 -285
0 -285 145 0 146 0 -3 -92 -3 -93 -47 -3 -48 -3 0 -45 0 -44 190 0 190 0 0 45
0 45 50 0 50 0 0 -45 0 -45 45 0 45 0 0 140 0 140 -45 0 -45 0 0 50 0 50 45 0
45 0 0 45 0 45 -45 0 -45 0 0 50 0 50 -50 0 -51 0 3 92 3 93 48 3 47 3 0 -50
0 -51 45 0 45 0 0 -45 0 -45 50 0 50 0 0 -145 0 -145 45 0 45 0 0 145 0 145
-45 0 -45 0 0 95 0 95 45 0 45 0 0 45 0 45 -45 0 -45 0 0 -45 0 -45 -95 0 -95
0 0 95 0 95 -145 0 -145 0 0 -50 0 -50 -45 0 -45 0 0 50 0 50 -50 0 -50 0 0
45 0 45 50 0 50 0 0 95 0 95 45 0 45 0 0 95 0 95 -45 0 -45 0 0 50 0 51 93 -3
92 -3 3 -142 3 -143 44 0 45 0 0 95 0 95 50 0 50 0 0 -95 0 -95 44 0 45 0 3
48 3 47 45 0 45 0 3 -47 3 -48 45 0 44 0 0 145 0 145 -45 0 -45 0 0 45 0 45
45 0 45 0 0 50 0 50 -45 0 -45 0 0 45 0 45 45 0 45 0 0 50 0 50 -45 0 -45 0 0
45 0 45 -95 0 -95 0 0 -45 0 -45 -94 0 -95 0 -3 -47 -3 -48 -47 -3 -48 -3 0
-95 0 -95 -92 3 -93 3 -3 48 -3 47 50 0 51 0 0 140 0 140 -95 0 -95 0 0 50 0
50 45 0 45 0 0 45 0 45 -45 0 -45 0 0 50 0 50 45 0 45 0 0 45 0 45 -45 0 -45
0 0 50 0 50 -50 0 -50 0 0 -95z m100 -240 l0 -45 -50 0 -50 0 0 45 0 45 50 0
50 0 0 -45z m660 -380 l0 -45 -45 0 -45 0 0 -50 0 -50 45 0 45 0 0 -45 0 -45
51 0 50 0 -3 -47 -3 -48 -92 -3 -93 -3 0 96 0 95 -95 0 -95 0 0 50 0 50 45 0
45 0 0 45 0 45 95 0 95 0 0 -45z m-1040 -190 l0 -45 -50 0 -50 0 0 45 0 45 50
0 50 0 0 -45z m-860 -95 l0 -50 -45 0 -45 0 0 50 0 50 45 0 45 0 0 -50z m190
-94 l0 -45 48 -3 47 -3 3 -47 3 -48 44 0 44 0 3 48 3 47 140 0 140 0 0 -45 0
-45 -92 -3 -93 -3 0 -44 0 -45 45 0 45 0 0 -50 0 -50 50 0 50 0 0 -45 0 -45
-95 0 -95 0 0 45 0 45 -50 0 -50 0 0 -45 0 -45 -44 0 -45 0 -3 -47 -3 -48 -45
0 -45 0 -3 48 -3 47 -95 0 -94 0 0 45 0 45 -45 0 -45 0 0 50 0 50 -190 0 -190
0 0 45 0 45 44 0 45 0 3 48 3 47 238 3 237 2 0 45 0 45 45 0 45 0 0 -44z m670
-1 l0 -45 140 0 140 0 0 -50 0 -50 -140 0 -140 0 0 50 0 50 -50 0 -50 0 0 45
0 45 50 0 50 0 0 -45z m470 -190 l0 -145 -95 0 -95 0 0 -45 0 -45 -95 0 -96 0
3 93 3 92 45 0 45 0 3 -47 3 -48 44 0 44 0 3 48 3 47 48 3 47 3 0 95 0 94 45
0 45 0 0 -145z m-760 -380 l0 -45 51 0 50 0 -3 -47 -3 -48 -45 0 -45 0 -3 48
-3 47 -44 0 -44 0 -3 -47 -3 -48 -47 -3 -48 -3 0 95 0 96 95 0 95 0 0 -45z
m1045 -190 l0 -140 -140 0 -140 0 -3 129 c-1 72 0 136 2 143 4 11 36 13 143
11 l138 -3 0 -140z m95 -330 l0 -95 -44 0 -45 0 -3 -47 -3 -48 -45 0 -45 0 -3
93 -3 92 51 0 50 0 0 50 0 50 45 0 45 0 0 -95z"/>
<path d="M710 1295 l0 -45 140 0 140 0 0 -50 0 -50 95 0 95 0 0 50 0 50 -45 0
-45 0 0 45 0 45 -190 0 -190 0 0 -45z"/>
<path d="M2230 725 l0 -45 45 0 45 0 0 45 0 45 -45 0 -45 0 0 -45z"/>
<path d="M900 2245 l0 -45 45 0 45 0 0 45 0 45 -45 0 -45 0 0 -45z"/>
<path d="M2320 1200 l0 -50 190 0 190 0 0 -45 0 -45 50 0 50 0 0 45 0 45 -50
0 -50 0 0 50 0 50 -190 0 -190 0 0 -50z"/>
<path d="M330 915 l0 -45 45 0 45 0 0 45 0 45 -45 0 -45 0 0 -45z"/>
<path d="M520 915 l0 -45 45 0 45 0 0 45 0 45 -45 0 -45 0 0 -45z"/>
<path d="M140 440 l0 -330 330 0 330 0 0 330 0 330 -330 0 -330 0 0 -330z
m565 0 l0 -235 -235 0 -235 0 -3 225 c-1 123 0 230 3 237 3 11 54 13 237 11
l233 -3 0 -235z"/>
<path d="M330 440 l0 -140 140 0 140 0 0 140 0 140 -140 0 -140 0 0 -140z"/>
<path d="M1090 535 l0 -45 45 0 45 0 0 -50 0 -50 145 0 145 0 0 -45 0 -45 45
0 45 0 0 45 0 45 50 0 50 0 0 50 0 50 -240 0 -240 0 0 45 0 45 -45 0 -45 0 0
-45z"/>
<path d="M900 440 l0 -50 45 0 45 0 0 50 0 50 -45 0 -45 0 0 -50z"/>
<path d="M1750 395 l0 -95 50 0 50 0 0 95 0 95 -50 0 -50 0 0 -95z"/>
<path d="M990 205 l0 -95 95 0 95 0 0 45 0 45 -45 0 -45 0 0 50 0 50 -50 0
-50 0 0 -95z"/>
<path d="M1280 250 l0 -50 45 0 45 0 0 -45 0 -45 145 0 145 0 0 45 0 45 -145
0 -145 0 0 50 0 50 -45 0 -45 0 0 -50z"/>
<path d="M1940 250 l0 -50 -95 0 -95 0 0 -45 0 -45 95 0 95 0 0 45 0 45 50 0
50 0 0 50 0 50 -50 0 -50 0 0 -50z"/>
<path d="M2800 155 l0 -45 45 0 45 0 0 45 0 45 -45 0 -45 0 0 -45z"/>
</g>
</svg>
